<svg width="18" height="18" fill="none" xmlns="http://www.w3.org/2000/svg"><path fill-rule="evenodd" clip-rule="evenodd" d="M12.353 0H4.708A4.714 4.714 0 000 4.708v7.646a4.714 4.714 0 004.708 4.708h7.645a4.714 4.714 0 004.709-4.709V4.709A4.714 4.714 0 0012.353 0zm3.195 12.354a3.198 3.198 0 01-3.194 3.194H4.708a3.198 3.198 0 01-3.194-3.194V4.708a3.198 3.198 0 013.194-3.194h7.645a3.198 3.198 0 013.195 3.194v7.646zm-7.017-8.22a4.401 4.401 0 00-4.396 4.397 4.401 4.401 0 004.396 4.396 4.401 4.401 0 004.397-4.396A4.401 4.401 0 008.53 4.135zm0 7.28A2.886 2.886 0 015.65 8.53a2.886 2.886 0 012.88-2.882 2.886 2.886 0 012.883 2.883 2.886 2.886 0 01-2.883 2.883zm3.797-8.238a1.113 1.113 0 011.569 0 1.115 1.115 0 010 1.57 1.121 1.121 0 01-.785.325c-.292 0-.578-.119-.784-.325a1.12 1.12 0 01-.326-.785c0-.292.119-.58.326-.785z" fill="#ABABAB"/></svg>