<svg width="46" height="34" fill="none" xmlns="http://www.w3.org/2000/svg"><path d="M22.891 5.325c-6.854 0-12.43 5.576-12.43 12.43s5.576 12.43 12.43 12.43c6.855 0 12.43-5.576 12.43-12.43s-5.575-12.43-12.43-12.43zm0 23.22c-5.95 0-10.79-4.84-10.79-10.79 0-5.95 4.84-10.79 10.79-10.79 5.95 0 10.79 4.84 10.79 10.79 0 5.95-4.84 10.79-10.79 10.79zm19.339 1.408l.028-21.83a11.505 11.505 0 00-2.243-6.837l-.061-.084a1.782 1.782 0 00-2.02-.646 1.783 1.783 0 00-1.244 1.716l-.036 27.674a2.793 2.793 0 002.784 2.792 2.785 2.785 0 002.515-1.578 2.77 2.77 0 00.277-1.207zm-3.9-27.678c0-.034 0-.122.116-.16a.186.186 0 01.081-.01c.06.008.092.05.106.07l.062.084a9.864 9.864 0 011.923 5.861l-.015 11.635-2.295-.003.022-17.477zm2.12 28.222a1.148 1.148 0 01-2.155-.549l.01-8.555 2.296.003-.011 8.555c0 .198-.051.384-.14.546z" fill="#fff"/><path d="M10.155 1.011a.82.82 0 00-.821.82l-.01 6.121a1.954 1.954 0 01-1.608 1.927l-.548-.001.012-8.051a.82.82 0 00-1.64-.002l-.012 8.05h-.549a1.954 1.954 0 01-1.602-1.932l.01-6.122a.82.82 0 00-1.642-.002L1.736 7.94a3.585 3.585 0 002.322 3.374L3.449 29.48v.006c-.02.776.267 1.51.808 2.066a2.833 2.833 0 002.042.864h.015a2.83 2.83 0 002.052-.865c.544-.56.83-1.297.807-2.076l-.54-18.153a3.585 3.585 0 002.332-3.368l.01-6.121a.82.82 0 00-.82-.822zM7.534 29.524c.01.332-.112.645-.344.883-.231.238-.541.37-.873.369h-.015c-.33 0-.639-.131-.869-.368a1.206 1.206 0 01-.344-.877l.604-18.015.652.001h.001l.652.001.536 18.006z" fill="#fff"/><circle cx="22.867" cy="17.584" r="7.1" stroke="#fff" stroke-width="1.8"/></svg>