<svg width="42" height="33" fill="none" xmlns="http://www.w3.org/2000/svg"><path fill-rule="evenodd" clip-rule="evenodd" d="M41.258 8.122l-.028 21.831a2.77 2.77 0 01-.556 1.667 2.785 2.785 0 01-2.577 1.097 2.793 2.793 0 01-2.443-2.77l.035-27.675A1.783 1.783 0 0136.934.556a1.783 1.783 0 012.02.646l.061.083a11.51 11.51 0 012.243 6.837zm-3.812-6.007c-.115.038-.116.126-.116.16l-.022 17.477 2.295.003.015-11.635a9.864 9.864 0 00-1.923-5.861l-.062-.084a.154.154 0 00-.106-.07.186.186 0 00-.081.01zm.995 28.982a1.148 1.148 0 001.149-1.146l.01-8.555-2.294-.003-.011 8.555a1.15 1.15 0 001.146 1.15zM9.461 17.755c0-6.854 5.576-12.43 12.43-12.43 6.855 0 12.43 5.576 12.43 12.43s-5.575 12.43-12.43 12.43c-6.854 0-12.43-5.576-12.43-12.43zm1.64 0c0 5.95 4.84 10.79 10.79 10.79 5.95 0 10.79-4.84 10.79-10.79 0-5.95-4.84-10.79-10.79-10.79-5.95 0-10.79 4.84-10.79 10.79zM9.155 1.01a.82.82 0 00-.821.82l-.01 6.121a1.954 1.954 0 01-1.608 1.927l-.548-.001.012-8.051a.82.82 0 00-1.64-.002l-.012 8.05h-.549a1.954 1.954 0 01-1.602-1.932l.01-6.122a.82.82 0 00-1.643 0L.736 7.94a3.585 3.585 0 002.322 3.374L2.449 29.48v.006c-.02.776.267 1.51.808 2.066a2.833 2.833 0 002.042.864h.015a2.83 2.83 0 002.052-.865c.544-.56.83-1.297.807-2.076l-.54-18.153a3.585 3.585 0 002.332-3.368l.01-6.121a.82.82 0 00-.82-.822zM6.534 29.524c.01.332-.112.645-.344.883a1.2 1.2 0 01-.872.369h-.016c-.33 0-.639-.131-.869-.368a1.206 1.206 0 01-.344-.877l.604-18.015.652.001h.001l.652.001.536 18.006zm21.533-11.94a6.2 6.2 0 11-12.4 0 6.2 6.2 0 0112.4 0zm1.8 0a8 8 0 11-16 0 8 8 0 0116 0z" fill="#E3BF77"/></svg>