<svg width="32" height="32" fill="none" xmlns="http://www.w3.org/2000/svg"><path d="M20.063 9.563a.937.937 0 11-1.875 0 .937.937 0 011.875 0zm-6.875 0a.937.937 0 11-1.875 0 .937.937 0 011.874 0z" fill="#fff"/><path d="M27.313 13.875h-3.98a8.757 8.757 0 00.833-6.417A4.088 4.088 0 0026 4.062 4.067 4.067 0 0021.937 0a4.047 4.047 0 00-3.114 1.454 8.668 8.668 0 00-3.136-.579 8.668 8.668 0 00-3.135.579A4.047 4.047 0 009.438 0a4.067 4.067 0 00-4.063 4.063c0 1.377.71 2.653 1.833 3.395a8.755 8.755 0 00.833 6.417H4.062A4.067 4.067 0 000 17.938 4.067 4.067 0 004.063 22H6v2.13a4.669 4.669 0 00-1.25 3.183A4.693 4.693 0 009.438 32h12.5a4.693 4.693 0 004.687-4.688 4.669 4.669 0 00-1.25-3.182V22h1.938a4.067 4.067 0 004.062-4.063 4.067 4.067 0 00-4.063-4.062zM7.25 4.062a2.19 2.19 0 012.188-2.187c.82 0 1.564.453 1.943 1.183a.938.938 0 001.25.408 6.806 6.806 0 013.056-.716c1.074 0 2.103.241 3.058.716a.937.937 0 001.25-.408 2.182 2.182 0 011.942-1.183 2.19 2.19 0 012.188 2.188 2.2 2.2 0 01-1.414 2.046.938.938 0 00-.55 1.193c.266.744.401 1.526.401 2.323 0 3.473-2.588 6.352-5.937 6.81V14.33l.732-.365a.937.937 0 00-.839-1.677l-.83.415-.831-.416a.938.938 0 00-.839 1.677l.732.366v2.107c-3.349-.459-5.938-3.338-5.938-6.811 0-.797.136-1.579.403-2.323a.938.938 0 00-.55-1.193A2.2 2.2 0 017.25 4.063zm-.625 23.25A2.816 2.816 0 019.438 24.5a2.816 2.816 0 012.812 2.813 2.816 2.816 0 01-2.813 2.812 2.816 2.816 0 01-2.812-2.813zm15.313 2.813a2.816 2.816 0 01-2.813-2.813 2.816 2.816 0 012.813-2.812 2.816 2.816 0 012.812 2.813 2.816 2.816 0 01-2.813 2.812zm5.375-10h-2.875a.937.937 0 00-.938.938v1.83a4.66 4.66 0 00-1.563-.268 4.693 4.693 0 00-4.687 4.688c0 1.054.35 2.028.94 2.812h-5.005c.59-.784.94-1.758.94-2.813a4.693 4.693 0 00-4.688-4.687 4.66 4.66 0 00-1.562.269v-1.831a.937.937 0 00-.938-.938H4.063a2.19 2.19 0 01-2.187-2.188 2.19 2.19 0 012.188-2.187h5.382a8.724 8.724 0 006.242 2.625 8.724 8.724 0 006.243-2.625h5.383a2.19 2.19 0 012.187 2.188 2.19 2.19 0 01-2.188 2.187z" fill="#fff"/></svg>