<svg width="32" height="32" fill="none" xmlns="http://www.w3.org/2000/svg"><path fill-rule="evenodd" clip-rule="evenodd" d="M23.334 13.875h3.979a4.067 4.067 0 014.062 4.063A4.067 4.067 0 0127.312 22h-1.937v2.13a4.669 4.669 0 011.25 3.183A4.693 4.693 0 0121.937 32h-12.5a4.693 4.693 0 01-4.687-4.688A4.67 4.67 0 016 24.13V22H4.062A4.067 4.067 0 010 17.937a4.067 4.067 0 014.063-4.062H8.04a8.755 8.755 0 01-.833-6.417 4.088 4.088 0 01-1.833-3.396A4.067 4.067 0 019.438 0c1.221 0 2.352.541 3.114 1.454a8.668 8.668 0 013.136-.579c1.087 0 2.138.194 3.135.579A4.047 4.047 0 0121.937 0 4.067 4.067 0 0126 4.063c0 1.377-.71 2.653-1.834 3.395a8.757 8.757 0 01-.832 6.417zm-13.896-12A2.19 2.19 0 007.25 4.063a2.2 2.2 0 001.414 2.046.938.938 0 01.55 1.193 6.853 6.853 0 00-.402 2.323c0 3.473 2.59 6.352 5.938 6.81V14.33l-.732-.366a.937.937 0 11.839-1.677l.83.416.831-.415a.937.937 0 11.839 1.677l-.732.365v2.107c3.349-.459 5.938-3.338 5.938-6.811a6.86 6.86 0 00-.403-2.323.938.938 0 01.55-1.193 2.2 2.2 0 001.415-2.046 2.19 2.19 0 00-2.188-2.188c-.82 0-1.564.453-1.943 1.183a.937.937 0 01-1.25.408 6.806 6.806 0 00-3.056-.716 6.806 6.806 0 00-3.058.716.938.938 0 01-1.25-.408 2.182 2.182 0 00-1.943-1.183zm0 22.625a2.816 2.816 0 00-2.813 2.813 2.816 2.816 0 002.813 2.812 2.816 2.816 0 002.812-2.813A2.816 2.816 0 009.437 24.5zm9.687 2.813a2.816 2.816 0 002.813 2.812 2.816 2.816 0 002.812-2.813 2.816 2.816 0 00-2.813-2.812 2.816 2.816 0 00-2.812 2.813zm5.313-7.188h2.875a2.19 2.19 0 002.187-2.188 2.19 2.19 0 00-2.188-2.187H21.93a8.724 8.724 0 01-6.242 2.625 8.724 8.724 0 01-6.243-2.625H4.062a2.19 2.19 0 00-2.187 2.188 2.19 2.19 0 002.188 2.187h2.875c.517 0 .937.42.937.938v1.83a4.66 4.66 0 011.563-.268 4.693 4.693 0 014.687 4.688c0 1.054-.35 2.028-.94 2.812h5.005a4.663 4.663 0 01-.94-2.813 4.693 4.693 0 014.688-4.687 4.66 4.66 0 011.562.269v-1.831c0-.518.42-.938.938-.938zM13.188 9.562a.937.937 0 11-1.875 0 .937.937 0 011.874 0zm6.874 0a.937.937 0 11-1.874 0 .937.937 0 011.875 0z" fill="#E3BF77"/></svg>