<svg width="44" height="32" fill="none" xmlns="http://www.w3.org/2000/svg"><rect x="1" width="2" height="32" rx="1" fill="#fff"/><rect x="41" width="2" height="32" rx="1" fill="#fff"/><path d="M2 5c3 1 11.2 3 20 3s17-2 20-3M2 12c3 1 11.2 3 20 3s17-2 20-3M2 19c3 1 11.2 3 20 3s17-2 20-3M2 26c3 1 11.2 3 20 3s17-2 20-3" stroke="#fff" stroke-width="2"/><circle cx="42" cy="5" r="2" fill="#fff"/><circle cx="42" cy="12" r="2" fill="#fff"/><circle cx="42" cy="19" r="2" fill="#fff"/><circle cx="42" cy="26" r="2" fill="#fff"/><circle cx="2" cy="5" r="2" fill="#fff"/><circle cx="2" cy="12" r="2" fill="#fff"/><circle cx="2" cy="19" r="2" fill="#fff"/><circle cx="2" cy="26" r="2" fill="#fff"/></svg>