<svg width="37" height="32" fill="none" xmlns="http://www.w3.org/2000/svg"><path d="M34.954 23.553c-1.661 0-2.53.433-3.296.815-.665.332-1.19.594-2.354.594-1.164 0-1.69-.262-2.355-.594-.644-.32-1.36-.678-2.559-.783V9.855h10.564a1.055 1.055 0 000-2.11H28.61V3.167A3.17 3.17 0 0025.445 0a3.17 3.17 0 00-3.165 3.167v4.578h-4.325V3.167A3.17 3.17 0 0014.791 0a3.17 3.17 0 00-3.165 3.167v4.578H1.055a1.055 1.055 0 000 2.11h10.57v13.729c-1.202.105-1.92.463-2.566.784-.665.332-1.19.594-2.354.594-1.165 0-1.69-.262-2.355-.594-.766-.382-1.634-.814-3.295-.814a1.055 1.055 0 100 2.11c1.164 0 1.69.261 2.354.593.766.382 1.635.815 3.296.815 1.66 0 2.529-.433 3.295-.815.665-.332 1.19-.594 2.354-.594 1.164 0 1.69.262 2.355.594.766.382 1.634.815 3.295.815 1.66 0 2.53-.433 3.295-.815.665-.332 1.19-.594 2.355-.594 1.164 0 1.69.262 2.354.594.766.382 1.635.815 3.296.815 1.66 0 2.53-.433 3.295-.815.665-.332 1.19-.594 2.355-.594a1.055 1.055 0 000-2.11zm-21.218-7.779h8.544v3.523h-8.544v-3.523zM24.39 3.167c0-.583.473-1.057 1.055-1.057s1.055.474 1.055 1.057v4.578h-2.11V3.167zm-10.654 0c0-.583.473-1.057 1.055-1.057.581 0 1.054.474 1.054 1.057v4.578h-2.11V3.167zm8.544 6.688v3.81h-8.544v-3.81h8.544zm-1.922 14.513c-.665.332-1.19.594-2.354.594-1.164 0-1.69-.262-2.354-.594-.52-.258-1.086-.54-1.914-.696v-2.265h8.544v2.264c-.832.155-1.4.438-1.922.697zm14.596 4.114c-1.661 0-2.53.433-3.296.815-.665.331-1.19.593-2.354.593-1.164 0-1.69-.262-2.355-.593-.766-.382-1.634-.815-3.295-.815s-2.53.433-3.296.815c-.665.331-1.19.593-2.354.593-1.164 0-1.69-.262-2.354-.593-.767-.382-1.635-.815-3.296-.815-1.66 0-2.529.433-3.295.815-.665.331-1.19.593-2.354.593-1.165 0-1.69-.262-2.355-.593-.766-.382-1.634-.815-3.295-.815a1.055 1.055 0 100 2.11c1.164 0 1.69.262 2.354.593.766.382 1.635.815 3.296.815 1.66 0 2.529-.433 3.295-.815.665-.331 1.19-.593 2.354-.593 1.164 0 1.69.262 2.355.593.766.382 1.634.815 3.295.815 1.66 0 2.53-.433 3.295-.815.666-.331 1.19-.593 2.355-.593 1.164 0 1.69.262 2.354.593.767.382 1.635.815 3.296.815 1.66 0 2.53-.433 3.295-.815.665-.331 1.19-.593 2.355-.593a1.055 1.055 0 000-2.11z" fill="#fff"/></svg>