<svg width="45" height="32" fill="none" xmlns="http://www.w3.org/2000/svg"><rect x="3" y="1" width="39" height="14" rx="1" stroke="#fff" stroke-width="2"/><path d="M7.01 11.818a1 1 0 010-1.414l5.783-5.783a1 1 0 011.414 0l5.782 5.783a1 1 0 010 1.414l-5.782 5.783a1 1 0 01-1.415 0L7.01 11.817zm18.111 0a1 1 0 010-1.414l5.783-5.783a1 1 0 011.414 0l5.782 5.783a1 1 0 010 1.414l-5.782 5.783a1 1 0 01-1.414 0l-5.783-5.783z" stroke="#fff" stroke-width="2"/><mask id="a" fill="#fff"><path d="M0 16a2 2 0 012-2h41a2 2 0 012 2v7a1 1 0 01-1 1H1a1 1 0 01-1-1v-7z"/></mask><path d="M0 16a2 2 0 012-2h41a2 2 0 012 2v7a1 1 0 01-1 1H1a1 1 0 01-1-1v-7z" fill="#fff" stroke="#fff" stroke-width="4" mask="url(#a)"/><mask id="b" fill="#fff"><path d="M2 23a1 1 0 011-1h39a1 1 0 011 1v5a1 1 0 01-1 1H3a1 1 0 01-1-1v-5z"/></mask><path d="M2 23a1 1 0 011-1h39a1 1 0 011 1v5a1 1 0 01-1 1H3a1 1 0 01-1-1v-5z" stroke="#fff" stroke-width="4" mask="url(#b)"/><rect x="39" y="28" width="2" height="4" rx="1" fill="#fff"/><rect x="4" y="28" width="2" height="4" rx="1" fill="#fff"/></svg>