<svg width="45" height="32" fill="none" xmlns="http://www.w3.org/2000/svg"><path fill-rule="evenodd" clip-rule="evenodd" d="M7.717 11.11l5.782-5.782 5.783 5.783-5.783 5.782-5.782-5.782zm-1.414 1.415a2 2 0 010-2.828l5.782-5.783a2 2 0 012.829 0l5.782 5.783a2 2 0 010 2.828l-5.783 5.783a2 2 0 01-2.828 0l-5.782-5.783zm19.525-1.414l5.783-5.783 5.782 5.783-5.782 5.782-5.783-5.782zm-1.414 1.414a2 2 0 010-2.828l5.782-5.783a2 2 0 012.829 0l5.782 5.783a2 2 0 010 2.828l-5.782 5.783a2 2 0 01-2.829 0l-5.782-5.783z" fill="#E3BF77"/><path d="M0 16a2 2 0 012-2h41a2 2 0 012 2v7a1 1 0 01-1 1H1a1 1 0 01-1-1v-7z" fill="#fff"/><path fill-rule="evenodd" clip-rule="evenodd" d="M41 2H4v12h37V2zM2 2v12a2 2 0 00-2 2v7a1 1 0 001 1h1v4a1 1 0 001 1h1v2a1 1 0 102 0v-2h33v2a1 1 0 102 0v-2h1a1 1 0 001-1v-4h1a1 1 0 001-1v-7a2 2 0 00-2-2V2a2 2 0 00-2-2H4a2 2 0 00-2 2zm39 22H4v3h37v-3zm1-2h1v-6H2v6h40z" fill="#E3BF77"/></svg>