<svg width="46" height="34" viewBox="0 0 46 34" fill="none" xmlns="http://www.w3.org/2000/svg">
<path d="M22.8914 5.32457C16.0372 5.32457 10.4609 10.9008 10.4609 17.755C10.4609 24.6092 16.0373 30.1855 22.8914 30.1855C29.7455 30.1855 35.3219 24.6092 35.3219 17.755C35.3219 10.9008 29.7456 5.32457 22.8914 5.32457ZM22.8914 28.5448C16.9418 28.5448 12.1015 23.7045 12.1015 17.7549C12.1015 11.8054 16.9417 6.96511 22.8914 6.96511C28.8409 6.96511 33.6813 11.8054 33.6813 17.7549C33.6813 23.7045 28.8409 28.5448 22.8914 28.5448Z" fill="white"/>
<path d="M42.2304 29.9532L42.2581 8.1223C42.26 6.60292 41.9668 5.12039 41.3863 3.71605C41.0301 2.85393 40.5688 2.03614 40.0154 1.28536L39.9536 1.20156C39.4821 0.561881 38.6896 0.308641 37.9343 0.556391C37.1791 0.80408 36.6905 1.47773 36.6895 2.27246L36.6543 29.9461C36.6542 30.035 36.6582 30.1229 36.6663 30.2097C36.7872 31.5111 37.8065 32.5565 39.097 32.7165C39.209 32.7304 39.3232 32.7377 39.4387 32.7378C40.3515 32.739 41.1638 32.2991 41.6736 31.6196C41.7273 31.5481 41.7775 31.474 41.8242 31.3974C41.8709 31.3207 41.914 31.2418 41.9534 31.1605C42.1304 30.7951 42.2298 30.3855 42.2304 29.9532ZM38.3302 2.27451C38.3303 2.24137 38.3304 2.15303 38.4458 2.11518C38.4774 2.10481 38.5043 2.1026 38.5271 2.10543C38.5874 2.11292 38.6189 2.15567 38.633 2.17495L38.6948 2.25875C39.1694 2.90254 39.5648 3.60362 39.8702 4.34264C40.3678 5.54658 40.6193 6.8176 40.6176 8.1202L40.6029 19.7553L38.308 19.7523L38.3302 2.27451ZM40.4505 30.4974C40.2555 30.8548 39.876 31.0977 39.441 31.0971C38.808 31.0968 38.2942 30.5809 38.295 29.9482L38.3059 21.393L40.6007 21.3959L40.5899 29.9511C40.5896 30.1488 40.539 30.3349 40.4505 30.4974Z" fill="white"/>
<path d="M10.1551 1.01102C9.70186 1.01012 9.33428 1.37713 9.3336 1.83012L9.32446 7.95197C9.323 8.90605 8.6493 9.70739 7.71609 9.87874L7.16822 9.87792L7.18024 1.827C7.18092 1.37401 6.81421 1.00615 6.36113 1.0054C5.90791 1.00426 5.54028 1.37152 5.53961 1.82451L5.52758 9.87542L4.97923 9.87466C4.04666 9.70036 3.37553 8.89709 3.37692 7.94309L3.38607 1.82133C3.38675 1.36834 3.02004 1.00048 2.56696 0.999729C2.1139 0.998482 1.74611 1.36584 1.74544 1.81883L1.73629 7.9406C1.73405 9.47229 2.67594 10.7939 4.05761 11.315L3.44936 29.48C3.44927 29.482 3.4492 29.4842 3.44912 29.4862C3.42909 30.262 3.71612 30.9956 4.2573 31.5518C4.79848 32.108 5.52395 32.415 6.29935 32.4161L6.31439 32.4161C6.43415 32.4163 6.55277 32.4092 6.66963 32.395C7.31369 32.3169 7.90643 32.0241 8.36649 31.5508C8.91007 30.9917 9.19665 30.2545 9.17343 29.475L8.63356 11.322C10.0169 10.8051 10.963 9.48623 10.9652 7.95445L10.9743 1.83261C10.9749 1.37963 10.6082 1.01176 10.1551 1.01102ZM7.53366 29.5239C7.54348 29.8556 7.42154 30.1693 7.1902 30.4073C6.95885 30.6453 6.64904 30.7766 6.31747 30.7756L6.30244 30.7756C5.97218 30.7751 5.66341 30.6445 5.43316 30.4078C5.20341 30.1717 5.0813 29.8605 5.08914 29.5314L5.69254 11.5164L6.34471 11.5174C6.34504 11.5173 6.34529 11.5174 6.34563 11.5174C6.34587 11.5174 6.34612 11.5174 6.34636 11.5174L6.99803 11.5183L7.53366 29.5239Z" fill="white"/>
<circle cx="22.8672" cy="17.5841" r="7.1" stroke="white" stroke-width="1.8"/>
</svg>
