<svg width="32" height="32" viewBox="0 0 32 32" fill="none" xmlns="http://www.w3.org/2000/svg">
<path d="M20.0625 9.5625C20.0625 10.0803 19.6428 10.5 19.125 10.5C18.6072 10.5 18.1875 10.0803 18.1875 9.5625C18.1875 9.04468 18.6072 8.625 19.125 8.625C19.6428 8.625 20.0625 9.04468 20.0625 9.5625Z" fill="white"/>
<path d="M13.1875 9.5625C13.1875 10.0803 12.7678 10.5 12.25 10.5C11.7322 10.5 11.3125 10.0803 11.3125 9.5625C11.3125 9.04468 11.7322 8.625 12.25 8.625C12.7678 8.625 13.1875 9.04468 13.1875 9.5625Z" fill="white"/>
<path d="M27.3125 13.875H23.3337C24.0364 12.6157 24.4375 11.1665 24.4375 9.625C24.4375 8.88892 24.3464 8.16284 24.1665 7.45752C25.2893 6.71582 26 5.44043 26 4.0625C26 1.82251 24.1775 0 21.9375 0C20.7158 0 19.585 0.541016 18.8228 1.45361C17.8257 1.06934 16.7747 0.875 15.6875 0.875C14.6003 0.875 13.5493 1.06934 12.5522 1.45361C11.79 0.541016 10.6592 0 9.4375 0C7.19751 0 5.375 1.82251 5.375 4.0625C5.375 5.44043 6.08569 6.71582 7.2085 7.45752C7.02856 8.16284 6.9375 8.88892 6.9375 9.625C6.9375 11.1665 7.33862 12.6157 8.04126 13.875H4.0625C1.82251 13.875 0 15.6975 0 17.9375C0 20.1775 1.82251 22 4.0625 22H6V24.1301C5.22485 24.9666 4.75 26.085 4.75 27.3125C4.75 29.8972 6.85278 32 9.4375 32H21.9375C24.5222 32 26.625 29.8972 26.625 27.3125C26.625 26.085 26.1501 24.9666 25.375 24.1301V22H27.3125C29.5525 22 31.375 20.1775 31.375 17.9375C31.375 15.6975 29.5525 13.875 27.3125 13.875ZM7.25 4.0625C7.25 2.8562 8.2312 1.875 9.4375 1.875C10.2576 1.875 11.0022 2.32837 11.3806 3.05811C11.616 3.51221 12.1724 3.6936 12.6304 3.46582C13.5852 2.99097 14.6138 2.75 15.6875 2.75C16.7612 2.75 17.7898 2.99097 18.7446 3.46582C19.2026 3.69385 19.759 3.51221 19.9944 3.05811C20.3728 2.32837 21.1174 1.875 21.9375 1.875C23.1438 1.875 24.125 2.8562 24.125 4.0625C24.125 4.96655 23.5566 5.78906 22.7107 6.10889C22.2324 6.29004 21.9873 6.82104 22.1602 7.30249C22.4272 8.04639 22.5625 8.82788 22.5625 9.625C22.5625 13.0979 19.9739 15.9771 16.625 16.4358V14.3293L17.3567 13.9636C17.8198 13.7319 18.0076 13.1689 17.7759 12.7058C17.5444 12.2427 16.9814 12.0549 16.5183 12.2866L15.6875 12.7019L14.8567 12.2864C14.3938 12.0549 13.8306 12.2427 13.5991 12.7056C13.3674 13.1687 13.5552 13.7319 14.0183 13.9634L14.75 14.3293V16.4358C11.4011 15.9771 8.8125 13.0979 8.8125 9.625C8.8125 8.82788 8.94775 8.04639 9.21484 7.30249C9.3877 6.82104 9.14258 6.29004 8.66406 6.10889C7.81836 5.78906 7.25 4.96655 7.25 4.0625ZM6.625 27.3125C6.625 25.7617 7.88672 24.5 9.4375 24.5C10.9883 24.5 12.25 25.7617 12.25 27.3125C12.25 28.8633 10.9883 30.125 9.4375 30.125C7.88672 30.125 6.625 28.8633 6.625 27.3125ZM21.9375 30.125C20.3867 30.125 19.125 28.8633 19.125 27.3125C19.125 25.7617 20.3867 24.5 21.9375 24.5C23.4883 24.5 24.75 25.7617 24.75 27.3125C24.75 28.8633 23.4883 30.125 21.9375 30.125ZM27.3125 20.125H24.4375C23.9197 20.125 23.5 20.5447 23.5 21.0625V22.8938C23.011 22.7202 22.4854 22.625 21.9375 22.625C19.3528 22.625 17.25 24.7278 17.25 27.3125C17.25 28.3669 17.6001 29.3411 18.1899 30.125H13.1851C13.7749 29.3411 14.125 28.3669 14.125 27.3125C14.125 24.7278 12.0222 22.625 9.4375 22.625C8.88965 22.625 8.36401 22.7202 7.875 22.8938V21.0625C7.875 20.5447 7.45532 20.125 6.9375 20.125H4.0625C2.8562 20.125 1.875 19.1438 1.875 17.9375C1.875 16.7312 2.8562 15.75 4.0625 15.75H9.44531C11.0342 17.3689 13.2454 18.375 15.6875 18.375C18.1296 18.375 20.3408 17.3689 21.9297 15.75H27.3125C28.5188 15.75 29.5 16.7312 29.5 17.9375C29.5 19.1438 28.5188 20.125 27.3125 20.125Z" fill="white"/>
</svg>
