<svg width="42" height="34" fill="none" xmlns="http://www.w3.org/2000/svg"><path fill-rule="evenodd" clip-rule="evenodd" d="M41.39 8.538l-.027 21.831a2.77 2.77 0 01-.557 1.666 2.785 2.785 0 01-2.576 1.097 2.793 2.793 0 01-2.443-2.77l.035-27.674A1.784 1.784 0 0137.067.972a1.783 1.783 0 012.02.645l.061.084a11.505 11.505 0 012.243 6.837zm-3.81-6.007c-.116.038-.116.126-.116.16l-.022 17.477 2.295.003.015-11.635a9.864 9.864 0 00-1.923-5.861l-.062-.084a.153.153 0 00-.106-.07.186.186 0 00-.081.01zm.995 28.982a1.148 1.148 0 001.149-1.146l.01-8.555-2.294-.003-.011 8.555a1.148 1.148 0 001.146 1.149zM9.594 18.171c0-6.854 5.576-12.43 12.43-12.43s12.43 5.576 12.43 12.43-5.576 12.43-12.43 12.43-12.43-5.576-12.43-12.43zm1.64 0c0 5.95 4.84 10.79 10.79 10.79 5.95 0 10.79-4.84 10.79-10.79 0-5.95-4.84-10.79-10.79-10.79-5.95 0-10.79 4.84-10.79 10.79zM9.288 1.427a.82.82 0 00-.822.819l-.009 6.122a1.954 1.954 0 01-1.608 1.927l-.548-.001.012-8.051a.82.82 0 00-1.64-.003l-.013 8.051h-.548A1.954 1.954 0 012.51 8.359l.009-6.122a.82.82 0 00-1.64-.002l-.01 6.122A3.585 3.585 0 003.19 11.73l-.608 18.165v.006c-.02.776.267 1.51.808 2.066a2.833 2.833 0 002.042.864h.015a2.83 2.83 0 002.052-.865c.544-.56.83-1.297.807-2.076l-.54-18.153a3.585 3.585 0 002.332-3.368l.01-6.121a.82.82 0 00-.82-.822zM6.667 29.94c.01.331-.113.645-.344.883-.231.238-.541.37-.873.369h-.015a1.21 1.21 0 01-.869-.368 1.206 1.206 0 01-.344-.877l.603-18.015.653.001h.001l.652.001.536 18.006zM28.2 18a6.2 6.2 0 11-12.4 0 6.2 6.2 0 0112.4 0zm1.8 0a8 8 0 11-16 0 8 8 0 0116 0z" fill="#fff"/></svg>