<svg width="27" height="32" fill="none" xmlns="http://www.w3.org/2000/svg"><path d="M1.108 29.565l2.128 2.13a1.017 1.017 0 001.446.006 1.034 1.034 0 00.008-1.457l-2.13-2.13c-.763-.762-.642-2.17.262-3.075L4.6 23.262l.471.471a1.024 1.024 0 001.375.07L19.16 13.418a6.675 6.675 0 005.281-1.946A6.676 6.676 0 0026.41 6.72a6.68 6.68 0 00-1.969-4.752A6.676 6.676 0 0019.69 0a6.677 6.677 0 00-4.752 1.968 6.677 6.677 0 00-1.946 5.282L2.608 19.965a1.026 1.026 0 00.07 1.374l.47.472-1.777 1.777c-1.72 1.72-1.838 4.401-.263 5.977zM18.412 7.998c-1.982-1.982-2.53-4.065-2.024-4.577l.001-.002a4.638 4.638 0 013.301-1.367 4.64 4.64 0 013.301 1.367A4.638 4.638 0 0124.36 6.72c0 1.247-.486 2.42-1.368 3.301-.508.51-2.594-.038-4.579-2.023zm-3.385-1.083c.466.851 1.116 1.716 1.934 2.534.82.82 1.684 1.468 2.536 1.935-.94-.163-2.238-.493-3.108-1.363-.837-.837-1.2-2.166-1.362-3.106zM4.784 20.545L13.656 9.68a6.73 6.73 0 003.073 3.074L5.867 21.626l-1.083-1.082z" fill="#fff"/></svg>