<svg width="156" height="78" viewBox="0 0 156 78" fill="none" xmlns="http://www.w3.org/2000/svg">
<path fill-rule="evenodd" clip-rule="evenodd" d="M2 0C1.44772 0 1 0.447715 1 1V3.26756C0.402199 3.61337 0 4.25972 0 5C0 5.74028 0.402199 6.38663 1 6.73244V10.2676C0.402199 10.6134 0 11.2597 0 12C0 12.7403 0.402199 13.3866 1 13.7324V17.2676C0.402199 17.6134 0 18.2597 0 19C0 19.7403 0.402199 20.3866 1 20.7324V24.2676C0.402199 24.6134 0 25.2597 0 26C0 26.7403 0.402199 27.3866 1 27.7324V31C1 31.5523 1.44772 32 2 32C2.55228 32 3 31.5523 3 31V27.7324C3.13377 27.6551 3.25774 27.5626 3.36961 27.4575C7.22493 28.528 14.3874 30 22 30C29.6126 30 36.7751 28.528 40.6304 27.4575C40.7423 27.5626 40.8662 27.6551 41 27.7324V31C41 31.5523 41.4477 32 42 32C42.5523 32 43 31.5523 43 31V27.7324C43.5978 27.3866 44 26.7403 44 26C44 25.2597 43.5978 24.6134 43 24.2676V20.7324C43.5978 20.3866 44 19.7403 44 19C44 18.2597 43.5978 17.6134 43 17.2676V13.7324C43.5978 13.3866 44 12.7403 44 12C44 11.2597 43.5978 10.6134 43 10.2676V6.73244C43.5978 6.38663 44 5.74028 44 5C44 4.25972 43.5978 3.61337 43 3.26756V1C43 0.447715 42.5523 0 42 0C41.4477 0 41 0.447715 41 1V3.26756C40.5294 3.53982 40.18 3.99835 40.0526 4.54234C36.3448 5.56823 29.3829 7 22 7C14.6171 7 7.6552 5.56823 3.9474 4.54234C3.82005 3.99835 3.47064 3.53982 3 3.26756V1C3 0.447715 2.55228 0 2 0ZM3.9474 25.5423C7.6552 26.5682 14.6171 28 22 28C29.3829 28 36.3448 26.5682 40.0526 25.5423C40.18 24.9983 40.5294 24.5398 41 24.2676V20.7324C40.8662 20.6551 40.7423 20.5626 40.6304 20.4575C36.7751 21.528 29.6126 23 22 23C14.3874 23 7.22493 21.528 3.36961 20.4575C3.25774 20.5626 3.13377 20.6551 3 20.7324V24.2676C3.47064 24.5398 3.82005 24.9983 3.9474 25.5423ZM3 17.2676C3.47064 17.5398 3.82005 17.9983 3.9474 18.5423C7.6552 19.5682 14.6171 21 22 21C29.3829 21 36.3448 19.5682 40.0526 18.5423C40.18 17.9983 40.5294 17.5398 41 17.2676V13.7324C40.8662 13.6551 40.7423 13.5626 40.6304 13.4575C36.7751 14.528 29.6126 16 22 16C14.3874 16 7.22493 14.528 3.36961 13.4575C3.25774 13.5626 3.13377 13.6551 3 13.7324V17.2676ZM3.9474 11.5423C7.6552 12.5682 14.6171 14 22 14C29.3829 14 36.3448 12.5682 40.0526 11.5423C40.18 10.9983 40.5294 10.5398 41 10.2676V6.73244C40.8662 6.65505 40.7423 6.56262 40.6304 6.45746C36.7751 7.52804 29.6126 9 22 9C14.3874 9 7.22493 7.52804 3.36961 6.45746C3.25774 6.56262 3.13377 6.65505 3 6.73244V10.2676C3.47064 10.5398 3.82005 10.9983 3.9474 11.5423Z" fill="white"/>
<path d="M8.826 57.904C9.45133 58.072 9.92733 58.3613 10.254 58.772C10.5807 59.1733 10.744 59.6773 10.744 60.284C10.744 61.1427 10.4267 61.81 9.792 62.286C9.15733 62.762 8.238 63 7.034 63H2.386V53.2H6.768C7.86933 53.2 8.728 53.4193 9.344 53.858C9.96 54.2967 10.268 54.9173 10.268 55.72C10.268 56.2333 10.142 56.6767 9.89 57.05C9.64733 57.4233 9.29267 57.708 8.826 57.904ZM4.178 57.386H6.614C7.202 57.386 7.65 57.2693 7.958 57.036C8.266 56.8027 8.42 56.4573 8.42 56C8.42 55.5427 8.266 55.1973 7.958 54.964C7.65 54.7213 7.202 54.6 6.614 54.6H4.178V57.386ZM6.978 61.6C8.266 61.6 8.91 61.1147 8.91 60.144C8.91 59.192 8.266 58.716 6.978 58.716H4.178V61.6H6.978ZM19.6213 59.304C19.6213 59.4253 19.612 59.598 19.5933 59.822H13.7273C13.83 60.3727 14.096 60.8113 14.5253 61.138C14.964 61.4553 15.5053 61.614 16.1493 61.614C16.9706 61.614 17.6473 61.3433 18.1793 60.802L19.1173 61.88C18.7813 62.2813 18.3566 62.5847 17.8433 62.79C17.33 62.9953 16.7513 63.098 16.1073 63.098C15.286 63.098 14.5626 62.9347 13.9373 62.608C13.312 62.2813 12.8266 61.8287 12.4813 61.25C12.1453 60.662 11.9773 59.9993 11.9773 59.262C11.9773 58.534 12.1406 57.8807 12.4673 57.302C12.8033 56.714 13.2653 56.2567 13.8533 55.93C14.4413 55.6033 15.104 55.44 15.8413 55.44C16.5693 55.44 17.218 55.6033 17.7873 55.93C18.366 56.2473 18.814 56.7 19.1313 57.288C19.458 57.8667 19.6213 58.5387 19.6213 59.304ZM15.8413 56.84C15.2813 56.84 14.8053 57.008 14.4133 57.344C14.0306 57.6707 13.7973 58.1093 13.7133 58.66H17.9553C17.8806 58.1187 17.652 57.68 17.2693 57.344C16.8866 57.008 16.4106 56.84 15.8413 56.84ZM25.6794 55.44C26.4074 55.44 27.056 55.5987 27.6254 55.916C28.204 56.2333 28.6567 56.6813 28.9834 57.26C29.31 57.8387 29.4734 58.506 29.4734 59.262C29.4734 60.018 29.31 60.69 28.9834 61.278C28.6567 61.8567 28.204 62.3047 27.6254 62.622C27.056 62.9393 26.4074 63.098 25.6794 63.098C24.6714 63.098 23.8734 62.762 23.2854 62.09V65.716H21.5354V55.524H23.2014V56.504C23.4907 56.1493 23.8454 55.8833 24.2654 55.706C24.6947 55.5287 25.166 55.44 25.6794 55.44ZM25.4834 61.6C26.1274 61.6 26.6547 61.3853 27.0654 60.956C27.4854 60.5267 27.6954 59.962 27.6954 59.262C27.6954 58.562 27.4854 57.9973 27.0654 57.568C26.6547 57.1387 26.1274 56.924 25.4834 56.924C25.0634 56.924 24.6854 57.022 24.3494 57.218C24.0134 57.4047 23.7474 57.6753 23.5514 58.03C23.3554 58.3847 23.2574 58.7953 23.2574 59.262C23.2574 59.7287 23.3554 60.1393 23.5514 60.494C23.7474 60.8487 24.0134 61.124 24.3494 61.32C24.6854 61.5067 25.0634 61.6 25.4834 61.6ZM38.2151 59.304C38.2151 59.4253 38.2057 59.598 38.1871 59.822H32.3211C32.4237 60.3727 32.6897 60.8113 33.1191 61.138C33.5577 61.4553 34.0991 61.614 34.7431 61.614C35.5644 61.614 36.2411 61.3433 36.7731 60.802L37.7111 61.88C37.3751 62.2813 36.9504 62.5847 36.4371 62.79C35.9237 62.9953 35.3451 63.098 34.7011 63.098C33.8797 63.098 33.1564 62.9347 32.5311 62.608C31.9057 62.2813 31.4204 61.8287 31.0751 61.25C30.7391 60.662 30.5711 59.9993 30.5711 59.262C30.5711 58.534 30.7344 57.8807 31.0611 57.302C31.3971 56.714 31.8591 56.2567 32.4471 55.93C33.0351 55.6033 33.6977 55.44 34.4351 55.44C35.1631 55.44 35.8117 55.6033 36.3811 55.93C36.9597 56.2473 37.4077 56.7 37.7251 57.288C38.0517 57.8667 38.2151 58.5387 38.2151 59.304ZM34.4351 56.84C33.8751 56.84 33.3991 57.008 33.0071 57.344C32.6244 57.6707 32.3911 58.1093 32.3071 58.66H36.5491C36.4744 58.1187 36.2457 57.68 35.8631 57.344C35.4804 57.008 35.0044 56.84 34.4351 56.84ZM45.5471 59.108C46.4711 59.388 46.9331 59.9853 46.9331 60.9C46.9331 61.572 46.6811 62.09 46.1771 62.454C45.6731 62.818 44.9265 63 43.9371 63H40.1291V55.524H43.7831C44.6978 55.524 45.4118 55.692 45.9251 56.028C46.4385 56.364 46.6951 56.84 46.6951 57.456C46.6951 57.8387 46.5925 58.17 46.3871 58.45C46.1911 58.73 45.9111 58.9493 45.5471 59.108ZM41.7951 58.646H43.6291C44.5345 58.646 44.9871 58.3333 44.9871 57.708C44.9871 57.1013 44.5345 56.798 43.6291 56.798H41.7951V58.646ZM43.7971 61.726C44.7585 61.726 45.2391 61.4133 45.2391 60.788C45.2391 60.4613 45.1271 60.2187 44.9031 60.06C44.6791 59.892 44.3291 59.808 43.8531 59.808H41.7951V61.726H43.7971ZM52.1291 63.098C51.3731 63.098 50.6918 62.9347 50.0851 62.608C49.4784 62.2813 49.0024 61.8287 48.6571 61.25C48.3211 60.662 48.1531 59.9993 48.1531 59.262C48.1531 58.5247 48.3211 57.8667 48.6571 57.288C49.0024 56.7093 49.4784 56.2567 50.0851 55.93C50.6918 55.6033 51.3731 55.44 52.1291 55.44C52.8944 55.44 53.5804 55.6033 54.1871 55.93C54.7938 56.2567 55.2651 56.7093 55.6011 57.288C55.9464 57.8667 56.1191 58.5247 56.1191 59.262C56.1191 59.9993 55.9464 60.662 55.6011 61.25C55.2651 61.8287 54.7938 62.2813 54.1871 62.608C53.5804 62.9347 52.8944 63.098 52.1291 63.098ZM52.1291 61.6C52.7731 61.6 53.3051 61.3853 53.7251 60.956C54.1451 60.5267 54.3551 59.962 54.3551 59.262C54.3551 58.562 54.1451 57.9973 53.7251 57.568C53.3051 57.1387 52.7731 56.924 52.1291 56.924C51.4851 56.924 50.9531 57.1387 50.5331 57.568C50.1224 57.9973 49.9171 58.562 49.9171 59.262C49.9171 59.962 50.1224 60.5267 50.5331 60.956C50.9531 61.3853 51.4851 61.6 52.1291 61.6ZM64.1899 55.524V63H62.4399V60.102C61.7212 60.4473 60.9699 60.62 60.1859 60.62C59.2245 60.62 58.4872 60.4007 57.9739 59.962C57.4605 59.514 57.2039 58.8327 57.2039 57.918V55.524H58.9539V57.806C58.9539 58.282 59.0939 58.6367 59.3739 58.87C59.6539 59.1033 60.0505 59.22 60.5639 59.22C61.2172 59.22 61.8425 59.08 62.4399 58.8V55.524H64.1899ZM66.5432 55.524H68.2932V58.562H72.0592V55.524H73.8092V63H72.0592V60.046H68.2932V63H66.5432V55.524ZM79.7945 57.988C80.7465 57.988 81.4745 58.2027 81.9785 58.632C82.4825 59.0613 82.7345 59.668 82.7345 60.452C82.7345 61.2733 82.4545 61.908 81.8945 62.356C81.3438 62.804 80.5598 63.0233 79.5425 63.014L76.1545 63V55.524H77.9045V57.974L79.7945 57.988ZM83.7005 55.524H85.4505V63H83.7005V55.524ZM79.3885 61.726C79.9018 61.7353 80.2938 61.628 80.5645 61.404C80.8352 61.18 80.9705 60.8533 80.9705 60.424C80.9705 60.004 80.8398 59.696 80.5785 59.5C80.3172 59.304 79.9205 59.2013 79.3885 59.192L77.9045 59.178V61.712L79.3885 61.726ZM87.803 55.524H89.553V60.452L93.683 55.524H95.279V63H93.529V58.072L89.413 63H87.803V55.524ZM91.429 54.642C90.673 54.642 90.0943 54.4693 89.693 54.124C89.301 53.7693 89.1003 53.256 89.091 52.584H90.253C90.2623 52.92 90.365 53.186 90.561 53.382C90.7663 53.578 91.051 53.676 91.415 53.676C91.7696 53.676 92.0496 53.578 92.255 53.382C92.4696 53.186 92.5816 52.92 92.591 52.584H93.781C93.7716 53.256 93.5663 53.7693 93.165 54.124C92.7636 54.4693 92.185 54.642 91.429 54.642ZM108.67 55.524V63H106.934V57.008H103.252V63H101.502V55.524H108.67ZM113.817 55.44C114.919 55.44 115.759 55.706 116.337 56.238C116.925 56.7607 117.219 57.554 117.219 58.618V63H115.567V62.09C115.353 62.4167 115.045 62.6687 114.643 62.846C114.251 63.014 113.775 63.098 113.215 63.098C112.655 63.098 112.165 63.0047 111.745 62.818C111.325 62.622 110.999 62.356 110.765 62.02C110.541 61.6747 110.429 61.2873 110.429 60.858C110.429 60.186 110.677 59.6493 111.171 59.248C111.675 58.8373 112.464 58.632 113.537 58.632H115.469V58.52C115.469 57.9973 115.311 57.596 114.993 57.316C114.685 57.036 114.223 56.896 113.607 56.896C113.187 56.896 112.772 56.9613 112.361 57.092C111.96 57.2227 111.619 57.4047 111.339 57.638L110.653 56.364C111.045 56.0653 111.517 55.8367 112.067 55.678C112.618 55.5193 113.201 55.44 113.817 55.44ZM113.579 61.824C114.018 61.824 114.405 61.726 114.741 61.53C115.087 61.3247 115.329 61.0353 115.469 60.662V59.794H113.663C112.655 59.794 112.151 60.1253 112.151 60.788C112.151 61.1053 112.277 61.3573 112.529 61.544C112.781 61.7307 113.131 61.824 113.579 61.824ZM123.529 55.44C124.257 55.44 124.906 55.5987 125.475 55.916C126.054 56.2333 126.506 56.6813 126.833 57.26C127.16 57.8387 127.323 58.506 127.323 59.262C127.323 60.018 127.16 60.69 126.833 61.278C126.506 61.8567 126.054 62.3047 125.475 62.622C124.906 62.9393 124.257 63.098 123.529 63.098C122.521 63.098 121.723 62.762 121.135 62.09V65.716H119.385V55.524H121.051V56.504C121.34 56.1493 121.695 55.8833 122.115 55.706C122.544 55.5287 123.016 55.44 123.529 55.44ZM123.333 61.6C123.977 61.6 124.504 61.3853 124.915 60.956C125.335 60.5267 125.545 59.962 125.545 59.262C125.545 58.562 125.335 57.9973 124.915 57.568C124.504 57.1387 123.977 56.924 123.333 56.924C122.913 56.924 122.535 57.022 122.199 57.218C121.863 57.4047 121.597 57.6753 121.401 58.03C121.205 58.3847 121.107 58.7953 121.107 59.262C121.107 59.7287 121.205 60.1393 121.401 60.494C121.597 60.8487 121.863 61.124 122.199 61.32C122.535 61.5067 122.913 61.6 123.333 61.6ZM132.173 60.004H130.815V63H129.065V55.524H130.815V58.548H132.215L134.427 55.524H136.303L133.587 59.122L136.485 63H134.427L132.173 60.004Z" fill="white"/>
<rect x="1" y="76" width="155" height="2" rx="1" fill="white"/>
</svg>
