<svg width="155" height="78" viewBox="0 0 155 78" fill="none" xmlns="http://www.w3.org/2000/svg">
<path d="M42.6777 13.8587V2.75852C42.6777 1.23749 41.4411 0 39.9213 0H5.07869C3.55885 0 2.32234 1.23749 2.32234 2.75852V13.8588C1.00933 14.0588 0 15.1961 0 16.5651V23.4357C0 23.9154 0.388638 24.3044 0.868013 24.3044H1.79794V28.59C1.79794 29.0697 2.18658 29.4587 2.66596 29.4587H4.23289V31.1313C4.23289 31.6111 4.62153 32 5.10091 32C5.58028 32 5.96892 31.6111 5.96892 31.1313V29.4587H39.0312V31.1313C39.0312 31.6111 39.4197 32 39.8992 32C40.3787 32 40.7672 31.6111 40.7672 31.1313V29.4587H42.3342C42.8136 29.4587 43.2022 29.0697 43.2022 28.59V24.3044H44.132C44.6115 24.3044 45 23.9154 45 23.4357V16.5651C45 15.1961 43.9907 14.0586 42.6777 13.8587ZM4.05825 2.75852C4.05825 2.19549 4.51598 1.73739 5.07857 1.73739H39.9212C40.4838 1.73739 40.9415 2.19549 40.9415 2.75852V13.8276H37.8936C38.5001 13.1742 39.117 12.4871 39.7558 11.752C40.0399 11.425 40.0398 10.9385 39.7557 10.6116C37.2445 7.72318 35.1419 5.61896 32.2565 3.10658C31.9299 2.82211 31.4437 2.82211 31.117 3.10658C28.2315 5.61908 26.129 7.72329 23.6179 10.6116C23.3338 10.9385 23.3337 11.425 23.6178 11.752C24.2568 12.4872 24.8736 13.1743 25.48 13.8276H19.5193C20.1258 13.1742 20.7427 12.4871 21.3816 11.752C21.6657 11.425 21.6657 10.9385 21.3815 10.6116C18.8706 7.72364 16.768 5.61942 13.8823 3.10658C13.5557 2.82211 13.0695 2.82211 12.7428 3.10658C9.85704 5.61942 7.75448 7.72364 5.24361 10.6116C4.95936 10.9385 4.95936 11.425 5.24349 11.752C5.88247 12.4871 6.49934 13.1742 7.10579 13.8276H4.05825V2.75852ZM27.8751 13.8276C27.0765 13.0071 26.2697 12.1352 25.4273 11.1819C27.5024 8.8321 29.3395 6.99347 31.6869 4.91729C34.0342 6.99335 35.8714 8.8321 37.9465 11.1819C37.1043 12.1352 36.2974 13.0071 35.4987 13.8276H27.8751ZM9.50104 13.8276C8.70235 13.0069 7.89545 12.1352 7.05313 11.1819C9.1278 8.83256 10.9653 6.99359 13.3128 4.91729C15.6602 6.99359 17.4978 8.83256 19.5724 11.1819C18.7302 12.1352 17.9233 13.0069 17.1245 13.8276H9.50104ZM41.4661 27.7213H3.53397V24.3044H41.4661V27.7213ZM43.264 22.567H1.73603V16.5651C1.73603 16.0137 2.18438 15.565 2.73551 15.565H42.2645C42.8156 15.565 43.264 16.0137 43.264 16.5651V22.567Z" fill="white"/>
<path d="M5.908 63.14C4.90933 63.14 4.00867 62.9253 3.206 62.496C2.40333 62.0573 1.77333 61.4553 1.316 60.69C0.858667 59.9153 0.63 59.052 0.63 58.1C0.63 57.148 0.858667 56.2893 1.316 55.524C1.77333 54.7493 2.40333 54.1473 3.206 53.718C4.00867 53.2793 4.90933 53.06 5.908 53.06C6.90667 53.06 7.80733 53.2793 8.61 53.718C9.41267 54.1473 10.0427 54.7447 10.5 55.51C10.9573 56.2753 11.186 57.1387 11.186 58.1C11.186 59.0613 10.9573 59.9247 10.5 60.69C10.0427 61.4553 9.41267 62.0573 8.61 62.496C7.80733 62.9253 6.90667 63.14 5.908 63.14ZM5.908 61.544C6.56133 61.544 7.14933 61.3993 7.672 61.11C8.19467 60.8113 8.60533 60.4007 8.904 59.878C9.20267 59.346 9.352 58.7533 9.352 58.1C9.352 57.4467 9.20267 56.8587 8.904 56.336C8.60533 55.804 8.19467 55.3933 7.672 55.104C7.14933 54.8053 6.56133 54.656 5.908 54.656C5.25467 54.656 4.66667 54.8053 4.144 55.104C3.62133 55.3933 3.21067 55.804 2.912 56.336C2.61333 56.8587 2.464 57.4467 2.464 58.1C2.464 58.7533 2.61333 59.346 2.912 59.878C3.21067 60.4007 3.62133 60.8113 4.144 61.11C4.66667 61.3993 5.25467 61.544 5.908 61.544ZM18.7875 57.008H16.1695V63H14.4195V57.008H11.7875V55.524H18.7875V57.008ZM26.7287 59.304C26.7287 59.4253 26.7194 59.598 26.7007 59.822H20.8347C20.9374 60.3727 21.2034 60.8113 21.6327 61.138C22.0714 61.4553 22.6127 61.614 23.2567 61.614C24.0781 61.614 24.7547 61.3433 25.2867 60.802L26.2247 61.88C25.8887 62.2813 25.4641 62.5847 24.9507 62.79C24.4374 62.9953 23.8587 63.098 23.2147 63.098C22.3934 63.098 21.6701 62.9347 21.0447 62.608C20.4194 62.2813 19.9341 61.8287 19.5887 61.25C19.2527 60.662 19.0847 59.9993 19.0847 59.262C19.0847 58.534 19.2481 57.8807 19.5747 57.302C19.9107 56.714 20.3727 56.2567 20.9607 55.93C21.5487 55.6033 22.2114 55.44 22.9487 55.44C23.6767 55.44 24.3254 55.6033 24.8947 55.93C25.4734 56.2473 25.9214 56.7 26.2387 57.288C26.5654 57.8667 26.7287 58.5387 26.7287 59.304ZM22.9487 56.84C22.3887 56.84 21.9127 57.008 21.5207 57.344C21.1381 57.6707 20.9047 58.1093 20.8207 58.66H25.0627C24.9881 58.1187 24.7594 57.68 24.3767 57.344C23.9941 57.008 23.5181 56.84 22.9487 56.84ZM35.3231 55.524V63H33.5731V57.008H30.7731L30.7031 58.492C30.6564 59.4813 30.5631 60.312 30.4231 60.984C30.2924 61.6467 30.0638 62.174 29.7371 62.566C29.4198 62.9487 28.9811 63.14 28.4211 63.14C28.1598 63.14 27.8378 63.0887 27.4551 62.986L27.5391 61.516C27.6698 61.544 27.7818 61.558 27.8751 61.558C28.2298 61.558 28.4958 61.418 28.6731 61.138C28.8504 60.8487 28.9624 60.508 29.0091 60.116C29.0651 59.7147 29.1118 59.1453 29.1491 58.408L29.2751 55.524H35.3231ZM41.4319 57.988C42.3839 57.988 43.1119 58.2027 43.6159 58.632C44.1292 59.0613 44.3859 59.668 44.3859 60.452C44.3859 61.2733 44.1059 61.908 43.5459 62.356C42.9859 62.804 42.1972 63.0233 41.1799 63.014L37.6799 63V55.524H39.4299V57.974L41.4319 57.988ZM41.0259 61.726C41.5392 61.7353 41.9312 61.628 42.2019 61.404C42.4726 61.18 42.6079 60.8533 42.6079 60.424C42.6079 60.004 42.4772 59.696 42.2159 59.5C41.9546 59.304 41.5579 59.2013 41.0259 59.192L39.4299 59.178V61.712L41.0259 61.726Z" fill="white"/>
<rect y="76" width="155" height="2" rx="1" fill="white"/>
</svg>
