<svg width="44" height="32" viewBox="0 0 44 32" fill="none" xmlns="http://www.w3.org/2000/svg">
<rect x="1" width="2" height="32" rx="1" fill="white"/>
<rect x="41" width="2" height="32" rx="1" fill="white"/>
<path d="M2 5C5 6 13.2 8 22 8C30.8 8 39 6 42 5" stroke="white" stroke-width="2"/>
<path d="M2 12C5 13 13.2 15 22 15C30.8 15 39 13 42 12" stroke="white" stroke-width="2"/>
<path d="M2 19C5 20 13.2 22 22 22C30.8 22 39 20 42 19" stroke="white" stroke-width="2"/>
<path d="M2 26C5 27 13.2 29 22 29C30.8 29 39 27 42 26" stroke="white" stroke-width="2"/>
<circle cx="42" cy="5" r="2" fill="white"/>
<circle cx="42" cy="12" r="2" fill="white"/>
<circle cx="42" cy="19" r="2" fill="white"/>
<circle cx="42" cy="26" r="2" fill="white"/>
<circle cx="2" cy="5" r="2" fill="white"/>
<circle cx="2" cy="12" r="2" fill="white"/>
<circle cx="2" cy="19" r="2" fill="white"/>
<circle cx="2" cy="26" r="2" fill="white"/>
</svg>
