<svg width="37" height="32" viewBox="0 0 37 32" fill="none" xmlns="http://www.w3.org/2000/svg">
<path d="M34.9539 23.5535C33.293 23.5535 32.4245 23.9864 31.6582 24.3684C30.9932 24.6999 30.4679 24.9616 29.3038 24.9616C28.1396 24.9616 27.6145 24.6998 26.9494 24.3684C26.3052 24.0473 25.5887 23.6903 24.3901 23.5846V9.85467H34.9539C35.5365 9.85467 36.0088 9.38233 36.0088 8.79972C36.0088 8.21711 35.5365 7.74478 34.9539 7.74478H28.6098V3.16702C28.6098 1.42073 27.1901 0 25.445 0C23.7001 0 22.2803 1.42073 22.2803 3.16702V7.74478H17.9554V3.16702C17.9554 1.42073 16.5356 0 14.7906 0C13.0456 0 11.6258 1.42073 11.6258 3.16702V7.74478H1.05495C0.472334 7.74478 0 8.21711 0 8.79972C0 9.38233 0.472334 9.85467 1.05495 9.85467H11.6258V23.5839C10.4226 23.6887 9.70437 24.0466 9.05882 24.3684C8.39392 24.6999 7.8687 24.9616 6.7046 24.9616C5.5405 24.9616 5.01528 24.6998 4.35038 24.3684C3.58414 23.9864 2.71571 23.5535 1.05495 23.5535C0.472334 23.5535 0 24.0258 0 24.6084C0 25.191 0.472334 25.6634 1.05495 25.6634C2.21897 25.6634 2.74419 25.9252 3.40909 26.2567C4.1754 26.6387 5.04383 27.0716 6.7046 27.0716C8.36537 27.0716 9.23387 26.6387 10.0001 26.2567C10.665 25.9252 11.1902 25.6634 12.3543 25.6634C13.5184 25.6634 14.0435 25.9252 14.7085 26.2567C15.4747 26.6387 16.3431 27.0716 18.0039 27.0716C19.6647 27.0716 20.5332 26.6387 21.2995 26.2567C21.9644 25.9252 22.4896 25.6634 23.6537 25.6634C24.8179 25.6634 25.3431 25.9252 26.0082 26.2567C26.7744 26.6387 27.6429 27.0716 29.3038 27.0716C30.9646 27.0716 31.8331 26.6387 32.5994 26.2567C33.2644 25.9252 33.7896 25.6634 34.9539 25.6634C35.5365 25.6634 36.0088 25.191 36.0088 24.6084C36.0088 24.0258 35.5365 23.5535 34.9539 23.5535ZM13.7357 15.774H22.2803V19.2967H13.7357V15.774ZM24.3902 3.16702C24.3902 2.58412 24.8634 2.10989 25.445 2.10989C26.0267 2.10989 26.4999 2.58412 26.4999 3.16702V7.74478H24.3902V3.16702ZM13.7357 3.16702C13.7357 2.58412 14.209 2.10989 14.7906 2.10989C15.3723 2.10989 15.8455 2.58412 15.8455 3.16702V7.74478H13.7357V3.16702ZM22.2803 9.85467V13.6641H13.7357V9.85467H22.2803ZM20.3583 24.3684C19.6933 24.6999 19.168 24.9616 18.004 24.9616C16.84 24.9616 16.3147 24.6998 15.6498 24.3684C15.1305 24.1095 14.5639 23.8274 13.7357 23.6723V21.4066H22.2803V23.6708C21.4478 23.8255 20.8793 24.1087 20.3583 24.3684Z" fill="white"/>
<path d="M34.9539 28.482C33.293 28.482 32.4245 28.9148 31.6582 29.2968C30.9932 29.6283 30.4679 29.8901 29.3038 29.8901C28.1396 29.8901 27.6144 29.6283 26.9494 29.2968C26.183 28.9148 25.3146 28.482 23.6537 28.482C21.9929 28.482 21.1244 28.9148 20.3582 29.2968C19.6932 29.6283 19.168 29.8901 18.0039 29.8901C16.8399 29.8901 16.3147 29.6283 15.6497 29.2968C14.8835 28.9148 14.0151 28.482 12.3543 28.482C10.6936 28.482 9.82506 28.9148 9.05889 29.2968C8.39392 29.6283 7.8687 29.8901 6.7046 29.8901C5.5405 29.8901 5.01528 29.6283 4.35031 29.2968C3.58414 28.9149 2.71564 28.482 1.05495 28.482C0.472334 28.482 0 28.9543 0 29.5369C0 30.1195 0.472334 30.5919 1.05495 30.5919C2.21897 30.5919 2.74419 30.8537 3.40916 31.1852C4.1754 31.5671 5.04383 32 6.70467 32C8.36544 32 9.23394 31.5671 10.0001 31.1852C10.6651 30.8537 11.1903 30.5919 12.3544 30.5919C13.5184 30.5919 14.0436 30.8537 14.7085 31.1852C15.4749 31.5671 16.3432 32 18.004 32C19.6648 32 20.5333 31.5671 21.2995 31.1852C21.9645 30.8537 22.4897 30.5919 23.6538 30.5919C24.818 30.5919 25.3432 30.8537 26.0083 31.1852C26.7745 31.5671 27.643 32 29.3039 32C30.9647 32 31.8332 31.5671 32.5994 31.1852C33.2644 30.8537 33.7897 30.5919 34.9539 30.5919C35.5365 30.5919 36.0089 30.1195 36.0089 29.5369C36.0088 28.9543 35.5365 28.482 34.9539 28.482Z" fill="white"/>
</svg>
