<svg width="45" height="32" viewBox="0 0 45 32" fill="none" xmlns="http://www.w3.org/2000/svg">
<rect x="3" y="1" width="39" height="14" rx="1" stroke="white" stroke-width="2"/>
<path d="M7.00999 11.818C6.61947 11.4275 6.61947 10.7943 7.00999 10.4038L12.7925 4.62132C13.183 4.2308 13.8162 4.2308 14.2067 4.62132L19.9892 10.4038C20.3797 10.7943 20.3797 11.4275 19.9892 11.818L14.2067 17.6005C13.8162 17.991 13.183 17.991 12.7925 17.6005L7.00999 11.818Z" stroke="white" stroke-width="2"/>
<path d="M25.1213 11.818C24.7308 11.4275 24.7308 10.7943 25.1213 10.4038L30.9038 4.62132C31.2943 4.2308 31.9275 4.2308 32.318 4.62132L38.1005 10.4038C38.491 10.7943 38.491 11.4275 38.1005 11.818L32.318 17.6005C31.9275 17.991 31.2943 17.991 30.9038 17.6005L25.1213 11.818Z" stroke="white" stroke-width="2"/>
<mask id="path-4-inside-1" fill="white">
<path d="M0 16C0 14.8954 0.895431 14 2 14H43C44.1046 14 45 14.8954 45 16V23C45 23.5523 44.5523 24 44 24H1C0.447715 24 0 23.5523 0 23V16Z"/>
</mask>
<path d="M0 16C0 14.8954 0.895431 14 2 14H43C44.1046 14 45 14.8954 45 16V23C45 23.5523 44.5523 24 44 24H1C0.447715 24 0 23.5523 0 23V16Z" fill="white" stroke="white" stroke-width="4" mask="url(#path-4-inside-1)"/>
<mask id="path-5-inside-2" fill="white">
<path d="M2 23C2 22.4477 2.44772 22 3 22H42C42.5523 22 43 22.4477 43 23V28C43 28.5523 42.5523 29 42 29H3C2.44771 29 2 28.5523 2 28V23Z"/>
</mask>
<path d="M2 23C2 22.4477 2.44772 22 3 22H42C42.5523 22 43 22.4477 43 23V28C43 28.5523 42.5523 29 42 29H3C2.44771 29 2 28.5523 2 28V23Z" stroke="white" stroke-width="4" mask="url(#path-5-inside-2)"/>
<rect x="39" y="28" width="2" height="4" rx="1" fill="white"/>
<rect x="4" y="28" width="2" height="4" rx="1" fill="white"/>
</svg>
