<svg width="166" height="79" viewBox="0 0 166 79" fill="none" xmlns="http://www.w3.org/2000/svg">
<path fill-rule="evenodd" clip-rule="evenodd" d="M41.3909 8.53821L41.3633 30.3691C41.3627 30.8014 41.2633 31.211 41.0862 31.5764C41.0469 31.6577 41.0038 31.7366 40.9571 31.8133C40.9104 31.8899 40.8601 31.964 40.8064 32.0355C40.2967 32.715 39.4843 33.1549 38.5716 33.1537C38.456 33.1536 38.3418 33.1463 38.2299 33.1324C36.9393 32.9724 35.92 31.927 35.7992 30.6256C35.7911 30.5388 35.787 30.4509 35.7871 30.3621L35.8224 2.68837C35.8233 1.89363 36.312 1.21999 37.0671 0.972299C37.8225 0.724549 38.615 0.977788 39.0865 1.61747L39.1482 1.70127C39.7017 2.45204 40.1629 3.26984 40.5192 4.13196C41.0996 5.5363 41.3929 7.01883 41.3909 8.53821ZM37.5786 2.53109C37.4633 2.56893 37.4631 2.65728 37.4631 2.69042L37.4408 20.1682L39.7357 20.1712L39.7505 8.53611C39.7522 7.23351 39.5007 5.96249 39.0031 4.75855C38.6977 4.01953 38.3023 3.31844 37.8277 2.67465L37.7659 2.59086C37.7518 2.57158 37.7203 2.52882 37.66 2.52134C37.6372 2.51851 37.6103 2.52071 37.5786 2.53109ZM38.5739 31.513C39.0089 31.5136 39.3883 31.2707 39.5833 30.9133C39.6719 30.7508 39.7225 30.5647 39.7227 30.367L39.7336 21.8118L37.4387 21.8089L37.4278 30.3641C37.427 30.9968 37.9408 31.5127 38.5739 31.513ZM9.59379 18.1709C9.59379 11.3167 15.17 5.74048 22.0242 5.74048C28.8784 5.74048 34.4548 11.3167 34.4548 18.1709C34.4548 25.0251 28.8784 30.6014 22.0242 30.6014C15.1701 30.6014 9.59379 25.0251 9.59379 18.1709ZM11.2343 18.1708C11.2343 24.1204 16.0747 28.9607 22.0242 28.9607C27.9738 28.9607 32.8141 24.1204 32.8141 18.1708C32.8141 12.2213 27.9738 7.38102 22.0242 7.38102C16.0746 7.38102 11.2343 12.2214 11.2343 18.1708ZM9.28798 1.42692C8.83471 1.42603 8.46713 1.79304 8.46646 2.24603L8.45732 8.36787C8.45585 9.32196 7.78216 10.1233 6.84895 10.2946L6.30108 10.2938L6.3131 2.24291C6.31377 1.78992 5.94706 1.42206 5.49398 1.42131C5.04077 1.42016 4.67314 1.78743 4.67246 2.24042L4.66044 10.2913L4.11208 10.2906C3.17951 10.1163 2.50838 9.31299 2.50978 8.359L2.51893 2.23724C2.5196 1.78425 2.15289 1.41638 1.69981 1.41564C1.24675 1.41439 0.878968 1.78175 0.878291 2.23474L0.869145 8.3565C0.866907 9.8882 1.8088 11.2098 3.19047 11.7309L2.58222 29.8959L2.58198 29.9021C2.56194 30.6779 2.84898 31.4115 3.39016 31.9677C3.93134 32.5239 4.65681 32.8309 5.43221 32.832L5.44724 32.832C5.567 32.8322 5.68563 32.8251 5.80248 32.8109C6.44655 32.7328 7.03929 32.44 7.49934 31.9667C8.04293 31.4076 8.3295 30.6704 8.30629 29.8909L7.76642 11.7379C9.1498 11.221 10.0958 9.90213 10.098 8.37036L10.1072 2.24851C10.1078 1.79554 9.74106 1.42767 9.28798 1.42692ZM6.66651 29.9398C6.67633 30.2715 6.5544 30.5852 6.32305 30.8232C6.09171 31.0612 5.78189 31.1925 5.45033 31.1915L5.43529 31.1915C5.10504 31.191 4.79627 31.0604 4.56602 30.8237C4.33626 30.5876 4.21416 30.2764 4.222 29.9473L4.8254 11.9323L5.47757 11.9333L5.47849 11.9333L5.47922 11.9333L6.13089 11.9342L6.66651 29.9398ZM28.2 18C28.2 21.4242 25.4242 24.2 22 24.2C18.5759 24.2 15.8 21.4242 15.8 18C15.8 14.5758 18.5759 11.8 22 11.8C25.4242 11.8 28.2 14.5758 28.2 18ZM30 18C30 22.4183 26.4183 26 22 26C17.5818 26 14 22.4183 14 18C14 13.5817 17.5818 10 22 10C26.4183 10 30 13.5817 30 18Z" fill="white"/>
<path d="M6.404 54.2C7.25333 54.2 7.99067 54.34 8.616 54.62C9.25067 54.9 9.736 55.3013 10.072 55.824C10.408 56.3467 10.576 56.9673 10.576 57.686C10.576 58.3953 10.408 59.016 10.072 59.548C9.736 60.0707 9.25067 60.472 8.616 60.752C7.99067 61.032 7.25333 61.172 6.404 61.172H4.192V64H2.372V54.2H6.404ZM6.32 59.632C7.11333 59.632 7.71533 59.464 8.126 59.128C8.53667 58.792 8.742 58.3113 8.742 57.686C8.742 57.0607 8.53667 56.58 8.126 56.244C7.71533 55.908 7.11333 55.74 6.32 55.74H4.192V59.632H6.32ZM19.0744 60.304C19.0744 60.4253 19.0651 60.598 19.0464 60.822H13.1804C13.2831 61.3727 13.5491 61.8113 13.9784 62.138C14.4171 62.4553 14.9584 62.614 15.6024 62.614C16.4238 62.614 17.1004 62.3433 17.6324 61.802L18.5704 62.88C18.2344 63.2813 17.8098 63.5847 17.2964 63.79C16.7831 63.9953 16.2044 64.098 15.5604 64.098C14.7391 64.098 14.0158 63.9347 13.3904 63.608C12.7651 63.2813 12.2798 62.8287 11.9344 62.25C11.5984 61.662 11.4304 60.9993 11.4304 60.262C11.4304 59.534 11.5938 58.8807 11.9204 58.302C12.2564 57.714 12.7184 57.2567 13.3064 56.93C13.8944 56.6033 14.5571 56.44 15.2944 56.44C16.0224 56.44 16.6711 56.6033 17.2404 56.93C17.8191 57.2473 18.2671 57.7 18.5844 58.288C18.9111 58.8667 19.0744 59.5387 19.0744 60.304ZM15.2944 57.84C14.7344 57.84 14.2584 58.008 13.8664 58.344C13.4838 58.6707 13.2504 59.1093 13.1664 59.66H17.4084C17.3338 59.1187 17.1051 58.68 16.7224 58.344C16.3398 58.008 15.8638 57.84 15.2944 57.84ZM24.3905 64.098C23.6158 64.098 22.9205 63.9347 22.3045 63.608C21.6885 63.2813 21.2078 62.8287 20.8625 62.25C20.5172 61.662 20.3445 60.9993 20.3445 60.262C20.3445 59.5247 20.5172 58.8667 20.8625 58.288C21.2078 57.7093 21.6838 57.2567 22.2905 56.93C22.9065 56.6033 23.6065 56.44 24.3905 56.44C25.1278 56.44 25.7718 56.5893 26.3225 56.888C26.8825 57.1867 27.3025 57.616 27.5825 58.176L26.2385 58.96C26.0238 58.6147 25.7532 58.358 25.4265 58.19C25.1092 58.0127 24.7592 57.924 24.3765 57.924C23.7232 57.924 23.1818 58.1387 22.7525 58.568C22.3232 58.988 22.1085 59.5527 22.1085 60.262C22.1085 60.9713 22.3185 61.5407 22.7385 61.97C23.1678 62.39 23.7138 62.6 24.3765 62.6C24.7592 62.6 25.1092 62.516 25.4265 62.348C25.7532 62.1707 26.0238 61.9093 26.2385 61.564L27.5825 62.348C27.2932 62.908 26.8685 63.342 26.3085 63.65C25.7578 63.9487 25.1185 64.098 24.3905 64.098ZM34.9769 58.008H32.3589V64H30.6089V58.008H27.9769V56.524H34.9769V58.008ZM39.2502 64.098C38.4942 64.098 37.8129 63.9347 37.2062 63.608C36.5995 63.2813 36.1235 62.8287 35.7782 62.25C35.4422 61.662 35.2742 60.9993 35.2742 60.262C35.2742 59.5247 35.4422 58.8667 35.7782 58.288C36.1235 57.7093 36.5995 57.2567 37.2062 56.93C37.8129 56.6033 38.4942 56.44 39.2502 56.44C40.0155 56.44 40.7015 56.6033 41.3082 56.93C41.9149 57.2567 42.3862 57.7093 42.7222 58.288C43.0675 58.8667 43.2402 59.5247 43.2402 60.262C43.2402 60.9993 43.0675 61.662 42.7222 62.25C42.3862 62.8287 41.9149 63.2813 41.3082 63.608C40.7015 63.9347 40.0155 64.098 39.2502 64.098ZM39.2502 62.6C39.8942 62.6 40.4262 62.3853 40.8462 61.956C41.2662 61.5267 41.4762 60.962 41.4762 60.262C41.4762 59.562 41.2662 58.9973 40.8462 58.568C40.4262 58.1387 39.8942 57.924 39.2502 57.924C38.6062 57.924 38.0742 58.1387 37.6542 58.568C37.2435 58.9973 37.0382 59.562 37.0382 60.262C37.0382 60.962 37.2435 61.5267 37.6542 61.956C38.0742 62.3853 38.6062 62.6 39.2502 62.6ZM49.113 56.44C49.841 56.44 50.4896 56.5987 51.059 56.916C51.6376 57.2333 52.0903 57.6813 52.417 58.26C52.7436 58.8387 52.907 59.506 52.907 60.262C52.907 61.018 52.7436 61.69 52.417 62.278C52.0903 62.8567 51.6376 63.3047 51.059 63.622C50.4896 63.9393 49.841 64.098 49.113 64.098C48.105 64.098 47.307 63.762 46.719 63.09V66.716H44.969V56.524H46.635V57.504C46.9243 57.1493 47.279 56.8833 47.699 56.706C48.1283 56.5287 48.5996 56.44 49.113 56.44ZM48.917 62.6C49.561 62.6 50.0883 62.3853 50.499 61.956C50.919 61.5267 51.129 60.962 51.129 60.262C51.129 59.562 50.919 58.9973 50.499 58.568C50.0883 58.1387 49.561 57.924 48.917 57.924C48.497 57.924 48.119 58.022 47.783 58.218C47.447 58.4047 47.181 58.6753 46.985 59.03C46.789 59.3847 46.691 59.7953 46.691 60.262C46.691 60.7287 46.789 61.1393 46.985 61.494C47.181 61.8487 47.447 62.124 47.783 62.32C48.119 62.5067 48.497 62.6 48.917 62.6ZM57.339 56.44C58.4403 56.44 59.2803 56.706 59.859 57.238C60.447 57.7607 60.741 58.554 60.741 59.618V64H59.089V63.09C58.8743 63.4167 58.5663 63.6687 58.165 63.846C57.773 64.014 57.297 64.098 56.737 64.098C56.177 64.098 55.687 64.0047 55.267 63.818C54.847 63.622 54.5203 63.356 54.287 63.02C54.063 62.6747 53.951 62.2873 53.951 61.858C53.951 61.186 54.1983 60.6493 54.693 60.248C55.197 59.8373 55.9856 59.632 57.059 59.632H58.991V59.52C58.991 58.9973 58.8323 58.596 58.515 58.316C58.207 58.036 57.745 57.896 57.129 57.896C56.709 57.896 56.2936 57.9613 55.883 58.092C55.4816 58.2227 55.141 58.4047 54.861 58.638L54.175 57.364C54.567 57.0653 55.0383 56.8367 55.589 56.678C56.1396 56.5193 56.723 56.44 57.339 56.44ZM57.101 62.824C57.5396 62.824 57.927 62.726 58.263 62.53C58.6083 62.3247 58.851 62.0353 58.991 61.662V60.794H57.185C56.177 60.794 55.673 61.1253 55.673 61.788C55.673 62.1053 55.799 62.3573 56.051 62.544C56.303 62.7307 56.653 62.824 57.101 62.824ZM62.9065 56.524H64.6565V59.562H68.4225V56.524H70.1725V64H68.4225V61.046H64.6565V64H62.9065V56.524Z" fill="white"/>
<rect x="1" y="77" width="165" height="2" rx="1" fill="white"/>
</svg>
