<svg width="155" height="78" viewBox="0 0 155 78" fill="none" xmlns="http://www.w3.org/2000/svg">
<path fill-rule="evenodd" clip-rule="evenodd" d="M31.6582 24.3684C32.4245 23.9864 33.293 23.5535 34.9539 23.5535C35.5365 23.5535 36.0088 24.0258 36.0088 24.6084C36.0088 25.191 35.5365 25.6634 34.9539 25.6634C33.7897 25.6634 33.2645 25.9252 32.5996 26.2566L32.5994 26.2567C31.8331 26.6387 30.9646 27.0716 29.3038 27.0716C27.6429 27.0716 26.7744 26.6387 26.0082 26.2567L26.0078 26.2565C25.3429 25.9251 24.8177 25.6634 23.6537 25.6634C22.4896 25.6634 21.9644 25.9252 21.2995 26.2567C20.5332 26.6387 19.6647 27.0716 18.0039 27.0716C16.3431 27.0716 15.4747 26.6387 14.7085 26.2567L14.7082 26.2566C14.0434 25.9252 13.5182 25.6634 12.3543 25.6634C11.1902 25.6634 10.665 25.9252 10.0001 26.2567C9.23387 26.6387 8.36537 27.0716 6.7046 27.0716C5.04383 27.0716 4.1754 26.6387 3.40909 26.2567C2.74419 25.9252 2.21897 25.6634 1.05495 25.6634C0.472334 25.6634 0 25.191 0 24.6084C0 24.0258 0.472334 23.5535 1.05495 23.5535C2.71561 23.5535 3.58403 23.9864 4.35024 24.3683L4.35038 24.3684L4.35059 24.3685C5.01539 24.6998 5.54062 24.9616 6.7046 24.9616C7.8687 24.9616 8.39392 24.6999 9.05882 24.3684C9.70437 24.0466 10.4226 23.6887 11.6258 23.5839V9.85467H1.05495C0.472334 9.85467 0 9.38233 0 8.79972C0 8.21711 0.472334 7.74478 1.05495 7.74478H11.6258V3.16702C11.6258 1.42073 13.0456 0 14.7906 0C16.5356 0 17.9554 1.42073 17.9554 3.16702V7.74478H22.2803V3.16702C22.2803 1.42073 23.7001 0 25.445 0C27.1901 0 28.6098 1.42073 28.6098 3.16702V7.74478H34.9539C35.5365 7.74478 36.0088 8.21711 36.0088 8.79972C36.0088 9.38233 35.5365 9.85467 34.9539 9.85467H24.3901V23.5846C25.5887 23.6903 26.3052 24.0473 26.9494 24.3684L26.95 24.3687C27.6148 24.7 28.14 24.9616 29.3038 24.9616C30.4679 24.9616 30.9932 24.6999 31.6582 24.3684ZM22.2803 15.774H13.7357V19.2967H22.2803V15.774ZM25.445 2.10989C24.8634 2.10989 24.3902 2.58412 24.3902 3.16702V7.74478H26.4999V3.16702C26.4999 2.58412 26.0267 2.10989 25.445 2.10989ZM14.7906 2.10989C14.209 2.10989 13.7357 2.58412 13.7357 3.16702V7.74478H15.8455V3.16702C15.8455 2.58412 15.3723 2.10989 14.7906 2.10989ZM22.2803 13.6641V9.85467H13.7357V13.6641H22.2803ZM18.004 24.9616C19.168 24.9616 19.6933 24.6999 20.3583 24.3684C20.8793 24.1087 21.4478 23.8255 22.2803 23.6708V21.4066H13.7357V23.6723C14.5639 23.8274 15.1305 24.1095 15.6498 24.3684L15.65 24.3685C16.3148 24.6998 16.8401 24.9616 18.004 24.9616ZM31.6582 29.2968C32.4245 28.9149 33.293 28.482 34.9539 28.482C35.5365 28.482 36.0088 28.9543 36.0089 29.5369C36.0089 30.1196 35.5365 30.5919 34.9539 30.5919C33.7897 30.5919 33.2644 30.8537 32.5994 31.1852C31.8332 31.5671 30.9647 32 29.3039 32C27.643 32 26.7745 31.5671 26.0083 31.1852L26.0081 31.1851C25.3431 30.8537 24.8179 30.5919 23.6538 30.5919C22.4897 30.5919 21.9645 30.8537 21.2996 31.1851L21.2995 31.1852C20.5333 31.5671 19.6648 32 18.004 32C16.3433 32 15.475 31.5672 14.7087 31.1853L14.7085 31.1852L14.7083 31.1851C14.0434 30.8537 13.5183 30.5919 12.3544 30.5919C11.1904 30.5919 10.6651 30.8537 10.0002 31.1851L10.0001 31.1852C9.23394 31.5671 8.36544 32 6.70467 32C5.04383 32 4.1754 31.5671 3.40916 31.1852L3.40904 31.1851C2.74413 30.8537 2.2189 30.5919 1.05495 30.5919C0.472334 30.5919 0 30.1196 0 29.5369C0 28.9543 0.472334 28.482 1.05495 28.482C2.71554 28.482 3.58403 28.9149 4.35017 29.2968L4.35031 29.2968L4.35043 29.2969C5.01534 29.6283 5.54057 29.8901 6.7046 29.8901C7.86863 29.8901 8.39386 29.6283 9.05877 29.2969L9.05889 29.2968C9.82506 28.9149 10.6936 28.482 12.3543 28.482C14.0151 28.482 14.8834 28.9149 15.6497 29.2968L15.6497 29.2968L15.6498 29.2969C16.3147 29.6283 16.84 29.8901 18.0039 29.8901C19.1679 29.8901 19.6932 29.6283 20.3581 29.2969L20.3582 29.2968C21.1244 28.9149 21.9929 28.482 23.6537 28.482C25.3146 28.482 26.183 28.9149 26.9493 29.2968L26.9494 29.2968L26.9496 29.2969C27.6145 29.6284 28.1397 29.8901 29.3038 29.8901C30.4679 29.8901 30.9932 29.6283 31.6582 29.2968Z" fill="white"/>
<path d="M1.386 53.2H9.016V54.698H3.178V57.106H6.076C7.252 57.106 8.14333 57.3533 8.75 57.848C9.366 58.3333 9.674 59.038 9.674 59.962C9.674 60.9327 9.338 61.684 8.666 62.216C7.994 62.7387 7.03733 63 5.796 63H1.386V53.2ZM5.698 61.6C6.398 61.6 6.93 61.4647 7.294 61.194C7.658 60.9233 7.84 60.5313 7.84 60.018C7.84 59.01 7.126 58.506 5.698 58.506H3.178V61.6H5.698ZM14.2569 55.44C15.3583 55.44 16.1983 55.706 16.7769 56.238C17.3649 56.7607 17.6589 57.554 17.6589 58.618V63H16.0069V62.09C15.7923 62.4167 15.4843 62.6687 15.0829 62.846C14.6909 63.014 14.2149 63.098 13.6549 63.098C13.0949 63.098 12.6049 63.0047 12.1849 62.818C11.7649 62.622 11.4383 62.356 11.2049 62.02C10.9809 61.6747 10.8689 61.2873 10.8689 60.858C10.8689 60.186 11.1163 59.6493 11.6109 59.248C12.1149 58.8373 12.9036 58.632 13.9769 58.632H15.9089V58.52C15.9089 57.9973 15.7503 57.596 15.4329 57.316C15.1249 57.036 14.6629 56.896 14.0469 56.896C13.6269 56.896 13.2116 56.9613 12.8009 57.092C12.3996 57.2227 12.0589 57.4047 11.7789 57.638L11.0929 56.364C11.4849 56.0653 11.9563 55.8367 12.5069 55.678C13.0576 55.5193 13.6409 55.44 14.2569 55.44ZM14.0189 61.824C14.4576 61.824 14.8449 61.726 15.1809 61.53C15.5263 61.3247 15.7689 61.0353 15.9089 60.662V59.794H14.1029C13.0949 59.794 12.5909 60.1253 12.5909 60.788C12.5909 61.1053 12.7169 61.3573 12.9689 61.544C13.2209 61.7307 13.5709 61.824 14.0189 61.824ZM23.2264 63.098C22.4518 63.098 21.7564 62.9347 21.1404 62.608C20.5244 62.2813 20.0438 61.8287 19.6984 61.25C19.3531 60.662 19.1804 59.9993 19.1804 59.262C19.1804 58.5247 19.3531 57.8667 19.6984 57.288C20.0438 56.7093 20.5198 56.2567 21.1264 55.93C21.7424 55.6033 22.4424 55.44 23.2264 55.44C23.9638 55.44 24.6078 55.5893 25.1584 55.888C25.7184 56.1867 26.1384 56.616 26.4184 57.176L25.0744 57.96C24.8598 57.6147 24.5891 57.358 24.2624 57.19C23.9451 57.0127 23.5951 56.924 23.2124 56.924C22.5591 56.924 22.0178 57.1387 21.5884 57.568C21.1591 57.988 20.9444 58.5527 20.9444 59.262C20.9444 59.9713 21.1544 60.5407 21.5744 60.97C22.0038 61.39 22.5498 61.6 23.2124 61.6C23.5951 61.6 23.9451 61.516 24.2624 61.348C24.5891 61.1707 24.8598 60.9093 25.0744 60.564L26.4184 61.348C26.1291 61.908 25.7044 62.342 25.1444 62.65C24.5938 62.9487 23.9544 63.098 23.2264 63.098ZM31.2518 63.098C30.4772 63.098 29.7818 62.9347 29.1658 62.608C28.5498 62.2813 28.0692 61.8287 27.7238 61.25C27.3785 60.662 27.2058 59.9993 27.2058 59.262C27.2058 58.5247 27.3785 57.8667 27.7238 57.288C28.0692 56.7093 28.5452 56.2567 29.1518 55.93C29.7678 55.6033 30.4678 55.44 31.2518 55.44C31.9892 55.44 32.6332 55.5893 33.1838 55.888C33.7438 56.1867 34.1638 56.616 34.4438 57.176L33.0998 57.96C32.8852 57.6147 32.6145 57.358 32.2878 57.19C31.9705 57.0127 31.6205 56.924 31.2378 56.924C30.5845 56.924 30.0432 57.1387 29.6138 57.568C29.1845 57.988 28.9698 58.5527 28.9698 59.262C28.9698 59.9713 29.1798 60.5407 29.5998 60.97C30.0292 61.39 30.5752 61.6 31.2378 61.6C31.6205 61.6 31.9705 61.516 32.2878 61.348C32.6145 61.1707 32.8852 60.9093 33.0998 60.564L34.4438 61.348C34.1545 61.908 33.7298 62.342 33.1698 62.65C32.6192 62.9487 31.9798 63.098 31.2518 63.098ZM42.8752 59.304C42.8752 59.4253 42.8659 59.598 42.8472 59.822H36.9812C37.0839 60.3727 37.3499 60.8113 37.7792 61.138C38.2179 61.4553 38.7592 61.614 39.4032 61.614C40.2246 61.614 40.9012 61.3433 41.4332 60.802L42.3712 61.88C42.0352 62.2813 41.6106 62.5847 41.0972 62.79C40.5839 62.9953 40.0052 63.098 39.3612 63.098C38.5399 63.098 37.8166 62.9347 37.1912 62.608C36.5659 62.2813 36.0806 61.8287 35.7352 61.25C35.3992 60.662 35.2312 59.9993 35.2312 59.262C35.2312 58.534 35.3946 57.8807 35.7212 57.302C36.0572 56.714 36.5192 56.2567 37.1072 55.93C37.6952 55.6033 38.3579 55.44 39.0952 55.44C39.8232 55.44 40.4719 55.6033 41.0412 55.93C41.6199 56.2473 42.0679 56.7 42.3852 57.288C42.7119 57.8667 42.8752 58.5387 42.8752 59.304ZM39.0952 56.84C38.5352 56.84 38.0592 57.008 37.6672 57.344C37.2846 57.6707 37.0512 58.1093 36.9672 58.66H41.2092C41.1346 58.1187 40.9059 57.68 40.5232 57.344C40.1406 57.008 39.6646 56.84 39.0952 56.84ZM44.7893 55.524H46.5393V60.452L50.6693 55.524H52.2653V63H50.5153V58.072L46.3993 63H44.7893V55.524ZM48.4153 54.642C47.6593 54.642 47.0806 54.4693 46.6793 54.124C46.2873 53.7693 46.0866 53.256 46.0773 52.584H47.2393C47.2486 52.92 47.3513 53.186 47.5473 53.382C47.7526 53.578 48.0373 53.676 48.4013 53.676C48.7559 53.676 49.0359 53.578 49.2413 53.382C49.4559 53.186 49.5679 52.92 49.5773 52.584H50.7673C50.7579 53.256 50.5526 53.7693 50.1513 54.124C49.7499 54.4693 49.1713 54.642 48.4153 54.642ZM54.6194 55.524H56.3694V58.562H60.1354V55.524H61.8854V63H60.1354V60.046H56.3694V63H54.6194V55.524Z" fill="white"/>
<rect y="76" width="155" height="2" rx="1" fill="white"/>
</svg>
