<svg width="155" height="78" viewBox="0 0 155 78" fill="none" xmlns="http://www.w3.org/2000/svg">
<path d="M11.088 61.46V65.086H9.408V63H1.89V65.086H0.196L0.21 61.46H0.63C1.246 61.432 1.67533 60.9793 1.918 60.102C2.17 59.2153 2.324 57.9507 2.38 56.308L2.492 53.2H9.674V61.46H11.088ZM3.976 56.476C3.92933 57.7453 3.82667 58.8047 3.668 59.654C3.50933 60.494 3.25733 61.096 2.912 61.46H7.882V54.74H4.046L3.976 56.476ZM19.469 59.304C19.469 59.4253 19.4596 59.598 19.441 59.822H13.575C13.6776 60.3727 13.9436 60.8113 14.373 61.138C14.8116 61.4553 15.353 61.614 15.997 61.614C16.8183 61.614 17.495 61.3433 18.027 60.802L18.965 61.88C18.629 62.2813 18.2043 62.5847 17.691 62.79C17.1776 62.9953 16.599 63.098 15.955 63.098C15.1336 63.098 14.4103 62.9347 13.785 62.608C13.1596 62.2813 12.6743 61.8287 12.329 61.25C11.993 60.662 11.825 59.9993 11.825 59.262C11.825 58.534 11.9883 57.8807 12.315 57.302C12.651 56.714 13.113 56.2567 13.701 55.93C14.289 55.6033 14.9516 55.44 15.689 55.44C16.417 55.44 17.0656 55.6033 17.635 55.93C18.2136 56.2473 18.6616 56.7 18.979 57.288C19.3056 57.8667 19.469 58.5387 19.469 59.304ZM15.689 56.84C15.129 56.84 14.653 57.008 14.261 57.344C13.8783 57.6707 13.645 58.1093 13.561 58.66H17.803C17.7283 58.1187 17.4996 57.68 17.117 57.344C16.7343 57.008 16.2583 56.84 15.689 56.84ZM27.0316 57.008H24.4136V63H22.6636V57.008H20.0316V55.524H27.0316V57.008ZM31.3749 63.098C30.6002 63.098 29.9049 62.9347 29.2889 62.608C28.6729 62.2813 28.1922 61.8287 27.8469 61.25C27.5015 60.662 27.3289 59.9993 27.3289 59.262C27.3289 58.5247 27.5015 57.8667 27.8469 57.288C28.1922 56.7093 28.6682 56.2567 29.2749 55.93C29.8909 55.6033 30.5909 55.44 31.3749 55.44C32.1122 55.44 32.7562 55.5893 33.3069 55.888C33.8669 56.1867 34.2869 56.616 34.5669 57.176L33.2229 57.96C33.0082 57.6147 32.7375 57.358 32.4109 57.19C32.0935 57.0127 31.7435 56.924 31.3609 56.924C30.7075 56.924 30.1662 57.1387 29.7369 57.568C29.3075 57.988 29.0929 58.5527 29.0929 59.262C29.0929 59.9713 29.3029 60.5407 29.7229 60.97C30.1522 61.39 30.6982 61.6 31.3609 61.6C31.7435 61.6 32.0935 61.516 32.4109 61.348C32.7375 61.1707 33.0082 60.9093 33.2229 60.564L34.5669 61.348C34.2775 61.908 33.8529 62.342 33.2929 62.65C32.7422 62.9487 32.1029 63.098 31.3749 63.098ZM39.2156 60.004H37.8576V63H36.1076V55.524H37.8576V58.548H39.2576L41.4696 55.524H43.3456L40.6296 59.122L43.5276 63H41.4696L39.2156 60.004ZM44.7619 55.524H46.5119V60.452L50.6419 55.524H52.2379V63H50.4879V58.072L46.3719 63H44.7619V55.524ZM54.592 55.524H56.342V60.452L60.472 55.524H62.068V63H60.318V58.072L56.202 63H54.592V55.524ZM58.218 54.642C57.462 54.642 56.8833 54.4693 56.482 54.124C56.09 53.7693 55.8893 53.256 55.88 52.584H57.042C57.0513 52.92 57.154 53.186 57.35 53.382C57.5553 53.578 57.84 53.676 58.204 53.676C58.5587 53.676 58.8387 53.578 59.044 53.382C59.2587 53.186 59.3707 52.92 59.38 52.584H60.57C60.5607 53.256 60.3553 53.7693 59.954 54.124C59.5527 54.4693 58.974 54.642 58.218 54.642ZM71.3992 60.004H70.0412V63H68.2912V55.524H70.0412V58.548H71.4412L73.6532 55.524H75.5292L72.8132 59.122L75.7112 63H73.6532L71.3992 60.004ZM83.7215 55.524V63H81.9715V57.008H79.1715L79.1015 58.492C79.0549 59.4813 78.9615 60.312 78.8215 60.984C78.6909 61.6467 78.4622 62.174 78.1355 62.566C77.8182 62.9487 77.3795 63.14 76.8195 63.14C76.5582 63.14 76.2362 63.0887 75.8535 62.986L75.9375 61.516C76.0682 61.544 76.1802 61.558 76.2735 61.558C76.6282 61.558 76.8942 61.418 77.0715 61.138C77.2489 60.8487 77.3609 60.508 77.4075 60.116C77.4635 59.7147 77.5102 59.1453 77.5475 58.408L77.6735 55.524H83.7215ZM93.1343 55.524L89.6343 63.602C89.3077 64.414 88.911 64.9833 88.4443 65.31C87.9777 65.646 87.413 65.814 86.7503 65.814C86.377 65.814 86.0083 65.7533 85.6443 65.632C85.2803 65.5107 84.9817 65.3427 84.7483 65.128L85.4483 63.84C85.6163 63.9987 85.8123 64.1247 86.0363 64.218C86.2697 64.3113 86.503 64.358 86.7363 64.358C87.0443 64.358 87.2963 64.2787 87.4923 64.12C87.6977 63.9613 87.8843 63.6953 88.0523 63.322L88.1783 63.028L84.9163 55.524H86.7363L89.0883 61.054L91.4543 55.524H93.1343ZM98.3275 55.888C99.0368 55.888 99.6621 56.042 100.203 56.35C100.745 56.6487 101.165 57.0687 101.463 57.61C101.771 58.1513 101.925 58.772 101.925 59.472C101.925 60.1907 101.757 60.83 101.421 61.39C101.085 61.9407 100.614 62.37 100.007 62.678C99.4008 62.986 98.7101 63.14 97.9355 63.14C96.6381 63.14 95.6348 62.7107 94.9255 61.852C94.2161 60.9933 93.8615 59.7567 93.8615 58.142C93.8615 56.6393 94.1835 55.4493 94.8275 54.572C95.4715 53.6947 96.4561 53.116 97.7815 52.836L101.253 52.094L101.505 53.662L98.3555 54.306C97.4501 54.4927 96.7735 54.81 96.3255 55.258C95.8775 55.706 95.6161 56.336 95.5415 57.148C95.8775 56.7467 96.2835 56.4387 96.7595 56.224C97.2355 56 97.7581 55.888 98.3275 55.888ZM97.9775 61.726C98.6215 61.726 99.1395 61.5207 99.5315 61.11C99.9328 60.69 100.133 60.158 100.133 59.514C100.133 58.87 99.9328 58.352 99.5315 57.96C99.1395 57.568 98.6215 57.372 97.9775 57.372C97.3241 57.372 96.7968 57.568 96.3955 57.96C95.9941 58.352 95.7935 58.87 95.7935 59.514C95.7935 60.1673 95.9941 60.6993 96.3955 61.11C96.8061 61.5207 97.3335 61.726 97.9775 61.726Z" fill="white"/>
<rect y="76" width="155" height="2" rx="1" fill="white"/>
<path fill-rule="evenodd" clip-rule="evenodd" d="M23.3337 13.875H27.3125C29.5525 13.875 31.375 15.6975 31.375 17.9375C31.375 20.1775 29.5525 22 27.3125 22H25.375V24.1301C26.1501 24.9666 26.625 26.085 26.625 27.3125C26.625 29.8972 24.5222 32 21.9375 32H9.4375C6.85278 32 4.75 29.8972 4.75 27.3125C4.75 26.085 5.22485 24.9666 6 24.1301V22H4.0625C1.82251 22 0 20.1775 0 17.9375C0 15.6975 1.82251 13.875 4.0625 13.875H8.04126C7.33862 12.6157 6.9375 11.1665 6.9375 9.625C6.9375 8.88892 7.02856 8.16284 7.2085 7.45752C6.08569 6.71582 5.375 5.44043 5.375 4.0625C5.375 1.82251 7.19751 0 9.4375 0C10.6592 0 11.79 0.541016 12.5522 1.45361C13.5493 1.06934 14.6003 0.875 15.6875 0.875C16.7747 0.875 17.8257 1.06934 18.8228 1.45361C19.585 0.541016 20.7158 0 21.9375 0C24.1775 0 26 1.82251 26 4.0625C26 5.44043 25.2893 6.71582 24.1665 7.45752C24.3464 8.16284 24.4375 8.88892 24.4375 9.625C24.4375 11.1665 24.0364 12.6157 23.3337 13.875ZM9.4375 1.875C8.2312 1.875 7.25 2.8562 7.25 4.0625C7.25 4.96655 7.81836 5.78906 8.66406 6.10889C9.14258 6.29004 9.3877 6.82104 9.21484 7.30249C8.94775 8.04639 8.8125 8.82788 8.8125 9.625C8.8125 13.0979 11.4011 15.9771 14.75 16.4358V14.3293L14.0183 13.9634C13.5552 13.7319 13.3674 13.1687 13.5991 12.7056C13.8306 12.2427 14.3938 12.0549 14.8567 12.2864L15.6875 12.7019L16.5183 12.2866C16.9814 12.0549 17.5444 12.2427 17.7759 12.7058C18.0076 13.1689 17.8198 13.7319 17.3567 13.9636L16.625 14.3293V16.4358C19.9739 15.9771 22.5625 13.0979 22.5625 9.625C22.5625 8.82788 22.4272 8.04639 22.1602 7.30249C21.9873 6.82104 22.2324 6.29004 22.7107 6.10889C23.5566 5.78906 24.125 4.96655 24.125 4.0625C24.125 2.8562 23.1438 1.875 21.9375 1.875C21.1174 1.875 20.3728 2.32837 19.9944 3.05811C19.759 3.51221 19.2026 3.69385 18.7446 3.46582C17.7898 2.99097 16.7612 2.75 15.6875 2.75C14.6138 2.75 13.5852 2.99097 12.6304 3.46582C12.1724 3.6936 11.616 3.51221 11.3806 3.05811C11.0022 2.32837 10.2576 1.875 9.4375 1.875ZM9.4375 24.5C7.88672 24.5 6.625 25.7617 6.625 27.3125C6.625 28.8633 7.88672 30.125 9.4375 30.125C10.9883 30.125 12.25 28.8633 12.25 27.3125C12.25 25.7617 10.9883 24.5 9.4375 24.5ZM19.125 27.3125C19.125 28.8633 20.3867 30.125 21.9375 30.125C23.4883 30.125 24.75 28.8633 24.75 27.3125C24.75 25.7617 23.4883 24.5 21.9375 24.5C20.3867 24.5 19.125 25.7617 19.125 27.3125ZM24.4375 20.125H27.3125C28.5188 20.125 29.5 19.1438 29.5 17.9375C29.5 16.7312 28.5188 15.75 27.3125 15.75H21.9297C20.3408 17.3689 18.1296 18.375 15.6875 18.375C13.2454 18.375 11.0342 17.3689 9.44531 15.75H4.0625C2.8562 15.75 1.875 16.7312 1.875 17.9375C1.875 19.1438 2.8562 20.125 4.0625 20.125H6.9375C7.45532 20.125 7.875 20.5447 7.875 21.0625V22.8938C8.36401 22.7202 8.88965 22.625 9.4375 22.625C12.0222 22.625 14.125 24.7278 14.125 27.3125C14.125 28.3669 13.7749 29.3411 13.1851 30.125H18.1899C17.6001 29.3411 17.25 28.3669 17.25 27.3125C17.25 24.7278 19.3528 22.625 21.9375 22.625C22.4854 22.625 23.011 22.7202 23.5 22.8938V21.0625C23.5 20.5447 23.9197 20.125 24.4375 20.125ZM13.1875 9.5625C13.1875 10.0803 12.7678 10.5 12.25 10.5C11.7322 10.5 11.3125 10.0803 11.3125 9.5625C11.3125 9.04468 11.7322 8.625 12.25 8.625C12.7678 8.625 13.1875 9.04468 13.1875 9.5625ZM20.0625 9.5625C20.0625 10.0803 19.6428 10.5 19.125 10.5C18.6072 10.5 18.1875 10.0803 18.1875 9.5625C18.1875 9.04468 18.6072 8.625 19.125 8.625C19.6428 8.625 20.0625 9.04468 20.0625 9.5625Z" fill="white"/>
</svg>
