<svg width="155" height="78" viewBox="0 0 155 78" fill="none" xmlns="http://www.w3.org/2000/svg">
<path d="M1.10846 29.5646L3.23629 31.6956C3.63484 32.0967 4.28044 32.1045 4.68243 31.7005C5.08442 31.2966 5.08819 30.6447 4.68976 30.244L2.55934 28.1136C1.79748 27.3516 1.91783 25.9437 2.82234 25.0393L4.59979 23.2618L5.07128 23.7334C5.2706 23.9327 5.53339 24.0339 5.79693 24.0339C6.02621 24.0339 6.25613 23.9575 6.44566 23.8026L19.1611 13.4184C19.3364 13.4319 19.5126 13.4407 19.6902 13.4407C21.4853 13.4407 23.173 12.7419 24.4422 11.4724C25.7115 10.2031 26.4107 8.51563 26.4107 6.72041C26.4107 4.9254 25.7116 3.2377 24.4422 1.96837C23.1731 0.699041 21.4854 0 19.6903 0C17.8953 0 16.2076 0.699041 14.9383 1.96826C13.669 3.23759 12.97 4.92529 12.97 6.7203C12.97 6.89786 12.9788 7.07424 12.9924 7.24954L2.60815 19.9648C2.2749 20.3726 2.30496 20.9667 2.67732 21.3392L3.14891 21.8108L1.37146 23.5881C-0.348772 25.3082 -0.466859 27.9891 1.10846 29.5646ZM18.4121 7.99846C16.4301 6.01641 15.8819 3.93286 16.3876 3.42108C16.3881 3.42043 16.3887 3.42 16.3893 3.41936C17.2711 2.53758 18.4434 2.05198 19.6903 2.05198C20.9372 2.05198 22.1097 2.53769 22.9914 3.41936C23.8732 4.30113 24.3588 5.47349 24.3588 6.7203C24.3588 7.96733 23.8731 9.13969 22.9914 10.0215C22.4826 10.5302 20.3967 9.98289 18.4121 7.99846ZM15.0267 6.91478C15.4931 7.76617 16.1426 8.63113 16.961 9.44945C17.7801 10.2685 18.6454 10.9172 19.4972 11.384C18.5571 11.2211 17.2585 10.8907 16.3892 10.0215C15.5515 9.18354 15.1897 7.85452 15.0267 6.91478ZM4.78436 20.5441L13.6555 9.68142C13.9774 10.3363 14.4073 10.9413 14.9382 11.4724C15.4694 12.0036 16.0745 12.4333 16.7293 12.7552L5.86653 21.6262L4.78436 20.5441Z" fill="white"/>
<path d="M4.984 58.87H3.164V63H1.372V53.2H3.164V57.302H5.04L7.854 53.2H9.786L6.44 57.946L9.912 63H7.854L4.984 58.87ZM13.8331 55.44C14.9344 55.44 15.7744 55.706 16.3531 56.238C16.9411 56.7607 17.2351 57.554 17.2351 58.618V63H15.5831V62.09C15.3684 62.4167 15.0604 62.6687 14.6591 62.846C14.2671 63.014 13.7911 63.098 13.2311 63.098C12.6711 63.098 12.1811 63.0047 11.7611 62.818C11.3411 62.622 11.0144 62.356 10.7811 62.02C10.5571 61.6747 10.4451 61.2873 10.4451 60.858C10.4451 60.186 10.6924 59.6493 11.1871 59.248C11.6911 58.8373 12.4798 58.632 13.5531 58.632H15.4851V58.52C15.4851 57.9973 15.3264 57.596 15.0091 57.316C14.7011 57.036 14.2391 56.896 13.6231 56.896C13.2031 56.896 12.7878 56.9613 12.3771 57.092C11.9758 57.2227 11.6351 57.4047 11.3551 57.638L10.6691 56.364C11.0611 56.0653 11.5324 55.8367 12.0831 55.678C12.6338 55.5193 13.2171 55.44 13.8331 55.44ZM13.5951 61.824C14.0338 61.824 14.4211 61.726 14.7571 61.53C15.1024 61.3247 15.3451 61.0353 15.4851 60.662V59.794H13.6791C12.6711 59.794 12.1671 60.1253 12.1671 60.788C12.1671 61.1053 12.2931 61.3573 12.5451 61.544C12.7971 61.7307 13.1471 61.824 13.5951 61.824ZM23.5446 55.44C24.2726 55.44 24.9213 55.5987 25.4906 55.916C26.0693 56.2333 26.5219 56.6813 26.8486 57.26C27.1753 57.8387 27.3386 58.506 27.3386 59.262C27.3386 60.018 27.1753 60.69 26.8486 61.278C26.5219 61.8567 26.0693 62.3047 25.4906 62.622C24.9213 62.9393 24.2726 63.098 23.5446 63.098C22.5366 63.098 21.7386 62.762 21.1506 62.09V65.716H19.4006V55.524H21.0666V56.504C21.3559 56.1493 21.7106 55.8833 22.1306 55.706C22.5599 55.5287 23.0313 55.44 23.5446 55.44ZM23.3486 61.6C23.9926 61.6 24.5199 61.3853 24.9306 60.956C25.3506 60.5267 25.5606 59.962 25.5606 59.262C25.5606 58.562 25.3506 57.9973 24.9306 57.568C24.5199 57.1387 23.9926 56.924 23.3486 56.924C22.9286 56.924 22.5506 57.022 22.2146 57.218C21.8786 57.4047 21.6126 57.6753 21.4166 58.03C21.2206 58.3847 21.1226 58.7953 21.1226 59.262C21.1226 59.7287 21.2206 60.1393 21.4166 60.494C21.6126 60.8487 21.8786 61.124 22.2146 61.32C22.5506 61.5067 22.9286 61.6 23.3486 61.6ZM31.7706 55.44C32.8719 55.44 33.7119 55.706 34.2906 56.238C34.8786 56.7607 35.1726 57.554 35.1726 58.618V63H33.5206V62.09C33.3059 62.4167 32.9979 62.6687 32.5966 62.846C32.2046 63.014 31.7286 63.098 31.1686 63.098C30.6086 63.098 30.1186 63.0047 29.6986 62.818C29.2786 62.622 28.9519 62.356 28.7186 62.02C28.4946 61.6747 28.3826 61.2873 28.3826 60.858C28.3826 60.186 28.6299 59.6493 29.1246 59.248C29.6286 58.8373 30.4173 58.632 31.4906 58.632H33.4226V58.52C33.4226 57.9973 33.2639 57.596 32.9466 57.316C32.6386 57.036 32.1766 56.896 31.5606 56.896C31.1406 56.896 30.7253 56.9613 30.3146 57.092C29.9133 57.2227 29.5726 57.4047 29.2926 57.638L28.6066 56.364C28.9986 56.0653 29.4699 55.8367 30.0206 55.678C30.5713 55.5193 31.1546 55.44 31.7706 55.44ZM31.5326 61.824C31.9713 61.824 32.3586 61.726 32.6946 61.53C33.0399 61.3247 33.2826 61.0353 33.4226 60.662V59.794H31.6166C30.6086 59.794 30.1046 60.1253 30.1046 60.788C30.1046 61.1053 30.2306 61.3573 30.4826 61.544C30.7346 61.7307 31.0846 61.824 31.5326 61.824ZM40.6701 63.098C39.9141 63.098 39.2328 62.9347 38.6261 62.608C38.0194 62.2813 37.5434 61.8287 37.1981 61.25C36.8621 60.662 36.6941 59.9993 36.6941 59.262C36.6941 58.5247 36.8621 57.8667 37.1981 57.288C37.5434 56.7093 38.0194 56.2567 38.6261 55.93C39.2328 55.6033 39.9141 55.44 40.6701 55.44C41.4354 55.44 42.1214 55.6033 42.7281 55.93C43.3348 56.2567 43.8061 56.7093 44.1421 57.288C44.4874 57.8667 44.6601 58.5247 44.6601 59.262C44.6601 59.9993 44.4874 60.662 44.1421 61.25C43.8061 61.8287 43.3348 62.2813 42.7281 62.608C42.1214 62.9347 41.4354 63.098 40.6701 63.098ZM40.6701 61.6C41.3141 61.6 41.8461 61.3853 42.2661 60.956C42.6861 60.5267 42.8961 59.962 42.8961 59.262C42.8961 58.562 42.6861 57.9973 42.2661 57.568C41.8461 57.1387 41.3141 56.924 40.6701 56.924C40.0261 56.924 39.4941 57.1387 39.0741 57.568C38.6634 57.9973 38.4581 58.562 38.4581 59.262C38.4581 59.962 38.6634 60.5267 39.0741 60.956C39.4941 61.3853 40.0261 61.6 40.6701 61.6ZM49.4969 60.004H48.1389V63H46.3889V55.524H48.1389V58.548H49.5389L51.7509 55.524H53.6269L50.9109 59.122L53.8089 63H51.7509L49.4969 60.004ZM61.7971 59.304C61.7971 59.4253 61.7878 59.598 61.7691 59.822H55.9031C56.0058 60.3727 56.2718 60.8113 56.7011 61.138C57.1398 61.4553 57.6811 61.614 58.3251 61.614C59.1464 61.614 59.8231 61.3433 60.3551 60.802L61.2931 61.88C60.9571 62.2813 60.5324 62.5847 60.0191 62.79C59.5058 62.9953 58.9271 63.098 58.2831 63.098C57.4618 63.098 56.7384 62.9347 56.1131 62.608C55.4878 62.2813 55.0024 61.8287 54.6571 61.25C54.3211 60.662 54.1531 59.9993 54.1531 59.262C54.1531 58.534 54.3164 57.8807 54.6431 57.302C54.9791 56.714 55.4411 56.2567 56.0291 55.93C56.6171 55.6033 57.2798 55.44 58.0171 55.44C58.7451 55.44 59.3938 55.6033 59.9631 55.93C60.5418 56.2473 60.9898 56.7 61.3071 57.288C61.6338 57.8667 61.7971 58.5387 61.7971 59.304ZM58.0171 56.84C57.4571 56.84 56.9811 57.008 56.5891 57.344C56.2064 57.6707 55.9731 58.1093 55.8891 58.66H60.1311C60.0564 58.1187 59.8278 57.68 59.4451 57.344C59.0624 57.008 58.5864 56.84 58.0171 56.84Z" fill="white"/>
<rect y="76" width="155" height="2" rx="1" fill="white"/>
</svg>
